<svg version="1.1" xmlns="http://www.w3.org/2000/svg" viewBox="0 0 1107.8888888888891 666.5555555555562" width="1107.8888888888891" height="666.5555555555562">
  <!-- svg-source:excalidraw -->
  
  <defs>
    <style>
      @font-face {
        font-family: "Virgil";
        src: url("https://excalidraw.com/Virgil.woff2");
      }
      @font-face {
        font-family: "Cascadia";
        src: url("https://excalidraw.com/Cascadia.woff2");
      }
    </style>
  </defs>
  <rect x="0" y="0" width="1107.8888888888891" height="666.5555555555562" fill="#ffffff"></rect><g transform="translate(584.7777777777778 259.3333333333332) rotate(0 85.5 49.55555555555563)"><path d="M3.1316874511539936 1.6849546544253826 C49.56285539353266 1.6376782999746502, 100.60027409885078 -2.8763105525262653, 170.61091177538034 2.322309385985136 M0.12235314212739468 -1.8914763685315847 C35.58370016021654 0.23006844768300683, 70.84223307613283 -2.1344514464400706, 170.02345276437697 1.088389242067933 M168.7740005739033 -3.2182971127331257 C173.21486194965738 37.46584965433517, 168.933946093296 79.22263970143277, 173.58200984075663 95.30813427559218 M170.79463816247878 -1.0212589856237173 C169.40581192122562 37.012399977942366, 171.72166295395954 73.39819555344693, 170.42560190521178 100.34067759021303 M169.98920874670145 99.20652313820204 C113.88392592733723 96.94542941385066, 60.14295051153748 101.20134565168178, 3.9757344014942646 99.78640564075789 M169.67165607772765 98.62163910373232 C132.61365336300804 96.98195314061945, 93.76091760080305 95.85375755679911, 1.7980479057878256 100.68157139524004 M-1.5809643976390362 96.37867267719588 C-3.0801337225652428 71.87325643238933, 2.050319744803837 39.80352057698706, -0.5466596595942974 -3.8084282763302326 M-1.2442127410322428 99.71788874372027 C2.4979656082226183 59.83296268607188, 0.4468160611225511 22.73779531067447, -1.8978444878011942 1.1487293485552073" stroke="#000000" stroke-width="1" fill="none"></path></g><g transform="translate(613.7777777777778 283.8888888888888) rotate(0 56.5 25)"><text x="56.5" y="18" font-family="Virgil, Segoe UI Emoji" font-size="20px" fill="#000000" text-anchor="middle" style="white-space: pre;" direction="ltr">WebSockets</text><text x="56.5" y="43" font-family="Virgil, Segoe UI Emoji" font-size="20px" fill="#000000" text-anchor="middle" style="white-space: pre;" direction="ltr">server</text></g><g transform="translate(373.3333333333335 172.33333333333326) rotate(0 66.99999999999994 40.5)"><path d="M-1.553876232355833 0.8403879515826702 C35.44292468670753 -4.8025205193832505, 73.76313945464784 1.1933897675201304, 130.1963708885013 3.0191588513553143 M0.5442146118730307 1.7835297230631113 C47.04992311689998 1.9535881627723555, 91.59677503928533 3.6229675759002546, 135.63710386119772 0.6404838804155588 M135.58007125928987 -0.38024281337857246 C130.39762563535933 31.05989050073549, 135.6804800731874 51.25589463394135, 136.50517265871156 80.18940867111087 M132.8075049575417 1.071805501356721 C134.95701290188345 25.707582065556203, 133.2592588168195 49.61071740966291, 134.40351272188116 82.9625979308039 M131.633959699422 77.8686508052051 C88.65940856244407 82.18849310118705, 50.00851541496809 81.73922058779746, -2.857759427279234 78.09468580409884 M134.6967318113892 80.941267574206 C102.83926815222941 79.15717950049788, 71.62243521511549 81.91456779424101, -0.3116248194128275 82.55834212340415 M-1.5356435291469097 81.95120454952121 C4.23510051926598 58.903340614307666, 0.09363092144951224 38.85719710756093, 3.3586732633411884 -1.4829052574932575 M1.7631036695092916 79.77723088301718 C0.7197664426453412 51.00980384116992, -0.8900321675650775 22.693451399542383, -1.6856158915907145 1.6352970246225595" stroke="#000000" stroke-width="1" fill="none"></path></g><g transform="translate(388.94444444444446 193.3888888888888) rotate(0 51.5 19)"><text x="0" y="15" font-family="Cascadia, Segoe UI Emoji" font-size="16px" fill="#000000" text-anchor="start" style="white-space: pre;" direction="ltr">Recv socket</text><text x="0" y="34" font-family="Cascadia, Segoe UI Emoji" font-size="16px" fill="#000000" text-anchor="start" style="white-space: pre;" direction="ltr">udp:5000</text></g><g transform="translate(52.00000000000006 160.4999999999999) rotate(0 66.49999999999994 40.5)"><path d="M2.357246804982424 2.6605233065783978 C33.71152509963137 -2.220594489406792, 62.472957477532276 -3.953634702991692, 132.7068210132419 -0.042869795113801956 M0.8424773272126913 -0.7769381161779165 C49.07199318082999 -2.899166731480508, 95.46679795961819 -2.277116267327218, 134.16115469299245 -1.9018145557492971 M129.21704726293672 1.0884292237460613 C137.30290952393773 31.94032063288614, 132.57386973569157 58.87449887674302, 135.17677848413575 84.27420772239566 M131.39085144363332 0.79003562964499 C133.45576574025665 25.543537417147313, 135.41111452994858 55.07892435174436, 131.09851158224035 82.25258632935584 M130.95748202875245 78.61500991508365 C97.93882717126971 82.97358073664829, 61.62444553766393 79.57807256652042, 2.459132958203554 81.80702544376254 M133.04770601354528 79.81697984971106 C78.48304916275657 79.6493328444101, 27.659731041826277 82.31569101730362, 0.33764726482331753 79.57112028636038 M-0.9789440147578716 82.39346362277865 C0.8632630380056799 64.43741024183109, -1.3931281296350062 47.76261830497533, 3.1409205682575703 -0.623249638825655 M-1.3662192169576883 80.23217823542655 C1.5021648131497205 52.186119369324295, -0.4381735004298388 19.504098970629272, -1.9042141381651163 1.6793366316705942" stroke="#000000" stroke-width="1" fill="none"></path></g><g transform="translate(73.50000000000006 175.99999999999994) rotate(0 47 24)"><text x="47" y="19" font-family="Cascadia, Segoe UI Emoji" font-size="20px" fill="#000000" text-anchor="middle" style="white-space: pre;" direction="ltr">Socket</text><text x="47" y="43" font-family="Cascadia, Segoe UI Emoji" font-size="20px" fill="#000000" text-anchor="middle" style="white-space: pre;" direction="ltr">udp:5001</text></g><g transform="translate(352.33333333333337 117.33333333333324) rotate(0 86.5 116.83333333333331)"><path d="M-0.6132997218519449 -0.5908735152333975 C43.72666744338349 2.3989862570073455, 82.71935029160232 1.4167009362485259, 172.2603893931955 -1.7436010595411062 M-0.3076981781050563 -0.8987553091719747 C40.260125769022856 -1.319595790458843, 80.43459053188563 -2.206332749677822, 173.5995224537328 -0.4516358645632863 M174.6131926990681 -0.8283752837086752 C173.46880152141284 47.544378302761146, 175.44282819025187 96.01892675103974, 171.5641782076848 232.89103861900145 M173.7146110408565 -0.2541220147031151 C174.2261904823954 69.10793149373401, 175.0086738749233 138.9187764892477, 172.56020852403103 234.28195736781512 M171.73472834192216 233.7384595914433 C117.34362758575007 232.0533580275966, 58.407854817248875 232.07949174370302, 1.2537536080926657 233.6070829077313 M173.08405030984432 232.8591731615985 C122.03099531484767 233.07156183240622, 71.64909529574214 233.36558239577025, 0.21575252432376146 234.25676829895622 M-0.7838627317293808 234.4393993577267 C-2.352142642487711 145.73212218420326, -2.2870436554144327 56.899296673172245, 0.7281603034650639 0.6359317620980666 M0.5289901846327983 233.3966850764726 C-0.8703878784862468 151.77269367389704, -1.8371714055002877 69.09184723696251, -0.8117108517560042 -0.06129631408086643" stroke="#000000" stroke-width="1" fill="none"></path></g><g transform="translate(370.33333333333337 136.33333333333326) rotate(0 70.5 12)"><text x="0" y="19" font-family="Cascadia, Segoe UI Emoji" font-size="20px" fill="#000000" text-anchor="start" style="white-space: pre;" direction="ltr">Channel /foo</text></g><g transform="translate(371.7222222222224 454.3333333333333) rotate(0 66.99999999999994 40.5)"><path d="M-1.6331891529262066 -3.6736009009182453 C45.455509867705366 1.7592494584247476, 87.88556707315139 2.456098923794926, 135.81691377237428 0.24470628425478935 M0.7632619794458151 -0.5809901710599661 C26.550561095215357 -1.3015405868366345, 56.69132052287455 -1.7494459484890088, 134.79739153943945 -1.112999713048339 M131.29915540292848 3.5304547660052776 C137.221938700769 13.979971511196347, 137.145101518724 34.75530536454171, 133.94596319273103 80.58927632495761 M135.12335599027563 1.5170066002756357 C132.45968092082057 21.393467587325723, 133.43759173749004 42.29040014725179, 134.56471783481527 80.49460437335074 M132.6430180557071 82.12456704303622 C97.45610411074004 79.57729056913406, 50.102979991212436 75.99668184358627, -2.4215503446757793 78.34331215545535 M134.9270744975655 79.81307199038565 C98.8775103552266 82.49175883356482, 59.84730007946486 82.47964067284018, -1.2673611585050821 80.20951780118048 M3.59480993822217 78.07052792236209 C0.07527596971020112 58.424759552348405, 3.980608892645687 41.98347039986402, 2.6803155429661274 -2.4884254820644855 M-0.2880458775907755 80.73744281567633 C-3.3259584601037204 55.391279936488715, -3.1137298638932407 29.120398200489582, 1.4226755555719137 1.9717430118471384" stroke="#000000" stroke-width="1" fill="none"></path></g><g transform="translate(386.2222222222224 475.38888888888886) rotate(0 51.5 19)"><text x="0" y="15" font-family="Cascadia, Segoe UI Emoji" font-size="16px" fill="#000000" text-anchor="start" style="white-space: pre;" direction="ltr">Recv socket</text><text x="0" y="34" font-family="Cascadia, Segoe UI Emoji" font-size="16px" fill="#000000" text-anchor="start" style="white-space: pre;" direction="ltr">udp:6000</text></g><g transform="translate(50.38888888888886 390.8333333333331) rotate(0 67.05555555555549 40.5)"><path d="M0.19273043796420097 -0.7090290300548077 C46.59634826219532 -1.715113396717027, 96.23044628051824 1.2101856517067402, 133.17860777965836 3.1316874511539936 M-0.8165945764631033 -1.8368004504591227 C45.688067742944135 0.5976278832368558, 89.8634091547586 0.9460526159219449, 135.01956799729817 0.12235314212739468 M135.6376350700026 -1.1619803421199322 C132.59883047548212 18.81629919158295, 137.82613266912378 34.560009175725284, 135.7058941899901 78.77400057390332 M132.76068881257527 1.7652273830026388 C136.04204489150175 15.881459928955884, 136.00362630047925 35.16060102898628, 134.08409270747654 80.7946381624788 M136.35782309166245 84.03401320055127 C99.57709045291143 84.89654322502307, 68.14768761762721 86.3626061284273, 1.129435669630766 79.98920874670148 M133.43262013896458 81.56228352151811 C95.54574965436208 79.23790366586918, 51.57577408247931 77.44759930309529, -1.2107751723378897 79.67165607772768 M1.8541489951312542 78.6261439807713 C3.0317430443502964 61.82328219814226, -1.1876024060510098 39.48140750657767, -2.5347223170101643 -1.5809643976390362 M1.797404969111085 79.53526396118104 C0.3486057995073498 60.32897369051352, 2.3012722609750926 42.72492302861065, 1.3401577714830637 -1.2442127410322428" stroke="#000000" stroke-width="1" fill="none"></path></g><g transform="translate(73.49999999999994 406.3333333333331) rotate(0 47 24)"><text x="47" y="19" font-family="Cascadia, Segoe UI Emoji" font-size="20px" fill="#000000" text-anchor="middle" style="white-space: pre;" direction="ltr">Socket</text><text x="47" y="43" font-family="Cascadia, Segoe UI Emoji" font-size="20px" fill="#000000" text-anchor="middle" style="white-space: pre;" direction="ltr">udp:5002</text></g><g transform="translate(350.7222222222224 399.3333333333333) rotate(0 86.5 79.33333333333331)"><path d="M-0.0863081756979227 1.8180508855730295 C62.82183097051457 -1.8936969131324441, 127.07671656142921 -3.239700266728178, 171.77376819215715 0.5644036177545786 M-0.38286187034100294 0.8746567694470286 C55.28575023794547 0.14978316639550027, 110.37853856235743 -1.327052173865959, 173.60216428060085 -0.9280111165717244 M172.9183056410402 0.5315986517816782 C174.029546470729 48.57587674235303, 175.06699326762308 94.37976214798786, 173.87811917625368 158.3574236078808 M172.84492470044643 0.3602152494713664 C171.38004199775557 51.07166587654499, 172.18258048209051 104.19809739198531, 172.09784654993564 158.81747860989216 M174.8901035245508 159.85390025811884 C124.76340505955741 157.16492036815416, 73.75090909395367 157.08990929361116, -1.7300943080335855 157.2843235774586 M172.3252184810117 158.28796358189228 C112.79358659042046 159.66252622453177, 52.924473201110956 158.36504459825957, 0.848507952876389 158.9940599628413 M-1.801346654072404 157.86232793765757 C1.0181048114721976 117.93347246150171, 1.2398205597822867 75.09247137072182, -1.9723200146108866 -1.8594252821058035 M0.6569269420579076 159.18708674392346 C-0.672995428989331 114.48843061545237, -0.5308592426280181 68.46543652769174, 0.3641887726262212 -0.24375655967742205" stroke="#000000" stroke-width="1" fill="none"></path></g><g transform="translate(368.7222222222224 417.2222222222221) rotate(0 70.5 12)"><text x="0" y="19" font-family="Cascadia, Segoe UI Emoji" font-size="20px" fill="#000000" text-anchor="start" style="white-space: pre;" direction="ltr">Channel /bar</text></g><g transform="translate(300.2222222222222 24.888888888888843) rotate(0 249.66666666666669 300.5555555555556)"><path d="M1.2030661390027029 -1.3477258005171995 C160.4595378952831 -1.282973888028807, 320.16479126122994 -2.6322413826493682, 500.78875044335217 0.9453625163535369 M-0.14217634458206813 -0.30886692101287905 C182.9534102644303 -0.20157275998615679, 366.5521981125181 -0.3799643897400086, 499.96130744342616 0.33787148818747914 M497.8638929729661 -0.1556352898478508 C501.2725901584079 155.4605749747199, 501.55132994455596 314.6908187475884, 499.4312158470353 599.5979300162859 M499.10093726490936 -0.3906188942492008 C504.0570871642812 197.3448473791075, 503.87792501962025 393.6989682850326, 498.88813344811405 600.4674516885646 M500.7492052710569 602.1466137640995 C328.28361150760065 599.4115072129272, 159.95913713144753 598.3851485408012, -0.1647187584021106 600.2919690828287 M499.94172154874224 600.8807515123073 C379.7990712945638 603.5225171467987, 260.0656762664238 603.5871676835563, -0.20268649016867796 601.1302433788547 M0.449826817214489 602.7014048717089 C4.034695399378737 455.1910018572171, 2.6024519091596208 310.588480007276, -1.0626751378178596 -0.39157760590314866 M-0.4747712038457394 601.8303302734263 C0.7694029685606558 399.7124661854779, 0.7645557042708 198.05617665197292, -0.3161928795278073 -0.5464876867830754" stroke="#000000" stroke-width="1" fill="none"></path></g><g transform="translate(404.0000000000002 51.999999999999986) rotate(0 131.5 17.5)"><text x="131.5" y="25" font-family="Virgil, Segoe UI Emoji" font-size="28px" fill="#000000" text-anchor="middle" style="white-space: pre;" direction="ltr">Browserglue Server</text></g><g transform="translate(861.2222222222223 188.77777777777783) rotate(0 118.33333333333337 129.99999999999997)"><path d="M62.166493466744846 -3.3605334274470806 M56.38030692810816 3.6290600411593914 C96.10956275664896 4.139068366680295, 130.4584970825042 1.6712754980660982, 176.79097096994528 -1.540309775620699 M58.70041500094039 1.5658437255769968 C94.64182282472035 -2.3342758193301667, 128.85221830413994 -2.3739322796153535, 175.66319954954096 -0.1945441123098135 M177.50000000000009 0 C219.96360329579986 1.8169137723743916, 236.91137295092156 15.939269485159059, 238.9889760526519 55.3630375551681 M178.58842922374615 3.5670594461262226 C214.69838580251164 2.503295256756246, 240.43200554742177 21.195335147178014, 238.42216921939215 57.83038927322877 M238.24673792595675 58.78642385328812 C232.38907247611021 110.84531150370215, 237.67192691393828 151.66006997320798, 239.17183932537844 200.02274200444413 M235.4741716242086 60.238472168023414 C237.4990933871208 102.9922929078651, 235.80133930205687 145.013472427614, 237.07017938854804 202.79593126413715 M236.66666666666677 200.83333333333326 C236.76207869375756 237.91173747719984, 213.81309524964965 258.64301805570716, 178.62943566963085 258.9892087467014 M237.791233709703 204.80906773482752 C233.32555534138044 237.49299488140056, 213.8892534232182 258.8742143830284, 178.27658870909372 256.7135766586288 M175.1261439807714 263.5960958115756 C141.01859068420413 260.47378851662694, 101.37202447870129 258.56231583844243, 57.58570226902766 257.26756156608457 M176.03526396118113 259.7266701702028 C144.63873130222788 263.8062658451187, 114.8444382520393 263.46708698493114, 57.92245392563445 260.60677763260895 M59.16666666666669 259.99999999999994 C19.146130467040678 259.4748856313526, -3.7956889756023884 242.57523647488813, 3.5262073390185833 198.38779509936762 M55.795434883485264 263.27059404924506 C15.138149430623493 260.62227673735464, -0.07961115147918463 242.96788472605655, 3.2721537778154017 205.36834226058167 M-1.856149386614561 202.64629206185532 C2.7195684703377374 168.4805598868988, -1.782168766638886 138.47157743728405, 2.7933019883930683 62.64694838846726 M-0.5461582485586405 201.22851715919865 C-2.683106683039415 169.9981560724166, -0.6019682510135054 137.89330806241676, -0.2775354329496622 58.25378275352222 M0 59.16666666666669 C-1.3029696829617023 20.072655977888246, 23.510041976554533 1.8473613746464252, 55.52792387331528 2.246622134000063 M-2.0190844424068928 59.94154724354548 C-2.44745280649513 15.927799895799001, 21.962103446593723 2.9065816363319756, 54.866042159932384 2.5544354280456902" stroke="#000000" stroke-width="1" fill="none"></path></g><g transform="translate(923.4444444444445 213.11111111111114) rotate(0 55.5 17.5)"><text x="55.5" y="25" font-family="Virgil, Segoe UI Emoji" font-size="28px" fill="#000000" text-anchor="middle" style="white-space: pre;" direction="ltr">Browser</text></g><g transform="translate(892.888888888889 278.77777777777777) rotate(0 86.66666666666663 67.5)"><path d="M0.24470628425478935 -3.7829527370631695 C36.60603640725214 1.992400843401751, 72.56173832590379 -2.7366389448444037, 171.38023886208725 2.176778484135866 M-1.112999713048339 -1.6091485563665628 C66.97826909335949 -1.5722667417178542, 131.0260446288933 0.38308204797407086, 174.62433825371158 -1.9014884177595377 M172.92260965829087 -2.0425179712474346 C170.40119410141673 51.09856872586534, 175.03289616688457 100.94392864685507, 172.18453714375687 137.45913295820355 M172.827937706684 0.047706013545393944 C174.7998203896296 41.65803627530113, 175.30434956777214 87.00970526691526, 175.3212005340804 135.33764726482332 M170.6766454887886 134.02105598524213 C135.1104211409886 132.78385818302633, 95.9547306982179 130.52746701538564, 3.596095811575651 138.14092056825757 M172.54285113451374 133.6337807830423 C123.266260003671 133.2788429333518, 76.53223517226672 131.33850461977224, -0.2733298297971487 133.09578586183488 M-2.4884254820644855 136.21355526521802 C4.527168387826532 80.71893950225785, 0.4248692936263978 30.80384110379964, -3.7956889756023884 2.2974586971104145 M1.9717430118471384 133.00692487321794 C-1.9370958800427616 105.84329372411594, -1.0380392665974796 75.08298860955983, -0.9803181048482656 -0.9352391306310892" stroke="#000000" stroke-width="1" fill="none"></path></g><g transform="translate(921.5555555555555 321.27777777777777) rotate(0 58 25)"><text x="58" y="18" font-family="Virgil, Segoe UI Emoji" font-size="20px" fill="#000000" text-anchor="middle" style="white-space: pre;" direction="ltr">Browserglue</text><text x="58" y="43" font-family="Virgil, Segoe UI Emoji" font-size="20px" fill="#000000" text-anchor="middle" style="white-space: pre;" direction="ltr">Client</text></g><g><g transform="translate(513.9364836186653 215.42275669109313) rotate(0 31.714149382475057 17.589075478640112)"><path d="M0.5364357981830836 0.6924140956252813 C11.388724321560701 6.384663694230437, 53.78459422060172 28.11231085373819, 64.0693729020604 33.93698118293417 M-0.6410741371102631 0.01032755048945555 C10.242645311994249 5.874792911829026, 52.80789101629402 29.521935716502224, 63.709752650609715 35.16782340679077" stroke="#000000" stroke-width="1" fill="none"></path></g><g transform="translate(513.9364836186653 215.42275669109313) rotate(0 31.714149382475057 17.589075478640112)"><path d="M35.18004451969641 32.69117921901283 C39.36665117081231 30.443325426048094, 48.52749133252679 33.15342883834026, 64.64002275062214 36.235821106394205 M33.66498395426201 31.20262513527063 C43.89349314837724 32.481523081863095, 55.32753263005321 34.553280706011726, 63.10280180410902 35.043511971754405" stroke="#000000" stroke-width="1" fill="none"></path></g><g transform="translate(513.9364836186653 215.42275669109313) rotate(0 31.714149382475057 17.589075478640112)"><path d="M44.91741257035241 14.627301843656696 C46.997657802646074 16.270043607412287, 54.08472926100873 22.82721363640431, 64.64002275062214 36.235821106394205 M43.402352004918015 13.138747759914494 C49.9653446538699 20.984801945724115, 57.836988698089556 29.665190773907774, 63.10280180410902 35.043511971754405" stroke="#000000" stroke-width="1" fill="none"></path></g></g><g transform="translate(375.66666666666663 274.3333333333333) rotate(0 65 29.16666666666667)"><path d="M-0.389088224619627 2.322309385985136 C37.927631731145084 5.406999436952174, 85.27943545766175 2.632546869851649, 126.21704726293683 1.0884292237460613 M-0.976547235623002 1.088389242067933 C52.23004706110805 1.3957711027935147, 101.98327793926 -0.357712490670383, 128.39085144363344 0.79003562964499 M132.58200984075665 -3.8029768355190754 C131.71742631789917 16.134887901600457, 129.15821685191864 33.48023478593679, 127.95748202875257 55.948343248417004 M129.4256019052118 1.229566479101777 C131.05880371620879 22.58869730976101, 131.2200088291429 40.74680313126497, 130.0477060135454 57.15031318304442 M133.97573440149426 59.00862786297999 C98.31912545580417 56.15898771540574, 69.93221942149103 56.40761406676225, -0.9789440147578716 59.72679695611201 M131.79804790578783 59.90379361746214 C91.07013594824821 58.34866904423885, 51.49616037681699 55.99984472201518, -1.3662192169576883 57.5655115687599 M-0.5466596595942974 54.524905057003124 C2.310187031359722 37.963254774454995, 1.6318293109846607 18.070561248498663, 1.2135552652180195 3.5262073390185833 M-1.8978444878011942 59.482062681888564 C-1.517589129662762 46.03504028248913, 1.5907023174998662 32.43789619424692, -1.9930751267820597 0.2705551031976938" stroke="#000000" stroke-width="1" fill="none"></path></g><g transform="translate(389.33333333333314 283.4444444444444) rotate(0 51.5 18.999999999999986)"><text x="0" y="15" font-family="Cascadia, Segoe UI Emoji" font-size="16px" fill="#000000" text-anchor="start" style="white-space: pre;" direction="ltr">Subscribers</text><text x="0" y="34" font-family="Cascadia, Segoe UI Emoji" font-size="16px" fill="#000000" text-anchor="start" style="white-space: pre;" direction="ltr">5001, 5002</text></g><g transform="translate(46.66666666666677 513.2222222222229) rotate(0 80.00000000000001 71.66666666666669)"><path d="M32.161305279781445 3.533826995640993 M37.34618783866368 2.9998268000781536 C53.14921861747282 -1.1882694956846536, 77.76418863578391 -3.3781425950117407, 121.38030692810814 3.6290600411593914 M35.92969855231546 -0.35451451502740383 C66.76876513985918 -1.0831577252907054, 99.22307182444882 0.3794917989211781, 123.70041500094037 1.5658437255769968 M124.16666666666667 0 C148.89594350713824 -1.6331891529262066, 156.32639909908178 11.555356219824827, 161.6849546544254 34.279457100977524 M126.48897605265181 -3.8036291114985943 C148.33696778244857 -4.350395647622644, 161.251693607308 16.046562807489607, 163.47203267905863 37.922784171563904 M162.1767784841359 39.107541055729016 C160.86459147157152 61.66313850522667, 157.35762428464372 81.0850804066286, 161.58007125929 107.1197571866215 M158.0985115822405 37.08591966268919 C160.8597839600407 52.46730169327933, 161.05971778696406 68.13404787487045, 158.80750495754185 108.57180550135679 M160.00000000000003 107.50000000000007 C158.85120381042364 133.84802184709253, 148.8625809993181 147.25852919494122, 126.41337864721815 146.3673465338847 M161.1294356696308 106.48920874670155 C156.3989484259859 129.82835965295226, 149.34880765504724 147.90542789505184, 124.27639049782108 140.61238698766886 M121.74511632199089 140.67664548878878 C95.19644723227248 143.44361651958909, 68.06665097580603 143.90430189194169, 33.45947731410466 146.92942914490908 M122.89930550816159 142.5428511345139 C89.36424786147352 143.9420471111003, 57.76986976495634 146.50727384478483, 34.3685972945144 143.06000350353628 M35.83333333333336 143.33333333333343 C10.461539186951196 146.01364887629956, -2.4884254820644855 132.602444154107, -3.8084282763302326 110.85867326334126 M39.35954067235194 140.8877950993678 C7.579402122501707 145.9754108350104, -3.8769165506586427 135.15007204552086, -0.6625055184587834 106.89611847605563 M0.5411102063953876 107.4307729117573 C0.9261409414621682 77.55642740537107, -3.373718701520315 52.433680257139144, -1.856149386614561 37.64629206185542 M-0.5300615970045328 108.8966509941966 C2.3500088200904434 81.95517430904637, 2.4462668047286575 60.54002857177212, -0.5461582485586405 36.228517159198745 M0 35.83333333333336 C3.99919356033206 9.016795233305967, 11.389373578545129 -1.8257678262889385, 35.6702500296136 -0.19415385648608208 M-3.638742793351412 38.07995546733342 C4.355992717482149 14.068910025287842, 9.622497335676528 0.8911126634106044, 34.3349181979274 0.40299881901592016" stroke="#000000" stroke-width="1" fill="none"></path></g><g transform="translate(68.33333333333343 530.8888888888896) rotate(0 63.5 50)"><text x="0" y="18" font-family="Virgil, Segoe UI Emoji" font-size="20px" fill="#000000" text-anchor="start" style="white-space: pre;" direction="ltr">OSC app #3</text><text x="0" y="43" font-family="Virgil, Segoe UI Emoji" font-size="20px" fill="#000000" text-anchor="start" style="white-space: pre;" direction="ltr"></text><text x="0" y="68" font-family="Virgil, Segoe UI Emoji" font-size="20px" fill="#000000" text-anchor="start" style="white-space: pre;" direction="ltr">Only sends </text><text x="0" y="93" font-family="Virgil, Segoe UI Emoji" font-size="20px" fill="#000000" text-anchor="start" style="white-space: pre;" direction="ltr">messages...</text></g><g><g transform="translate(216.66666666666686 575.7016934401571) rotate(0 78.54030925342917 -31.738052905276362)"><path d="M-0.8227100696414709 -0.2377716634422541 C25.01774547258737 -10.623634463290978, 129.25779536414754 -51.23668587525988, 155.5462562011762 -61.55896339373653 M0.9462284144572912 -1.4082057320885362 C27.13545738309967 -12.19200212413754, 131.97729683915014 -53.350986023951855, 157.9033285764998 -63.23833414711048" stroke="#000000" stroke-width="1" fill="none"></path></g><g transform="translate(216.66666666666686 575.7016934401571) rotate(0 78.54030925342917 -31.738052905276362)"><path d="M134.9399790723787 -44.5981121250943 C144.33573433738272 -48.933200366307496, 151.03198391308976 -58.19692658589219, 159.37356961090325 -65.23336245849718 M135.84516048868906 -42.58596540722556 C143.97834845595688 -51.046047223576196, 152.7900904881106 -58.382433304707405, 158.33062724434046 -63.10433881063004" stroke="#000000" stroke-width="1" fill="none"></path></g><g transform="translate(216.66666666666686 575.7016934401571) rotate(0 78.54030925342917 -31.738052905276362)"><path d="M127.51379422786295 -63.72850106627696 C139.56956495793344 -61.47084349702327, 148.80527452731533 -64.1927372148961, 159.37356961090325 -65.23336245849718 M128.41897564417332 -61.71635434840822 C139.62753679497192 -62.492983514434705, 151.4054385422993 -62.188327768436416, 158.33062724434046 -63.10433881063004" stroke="#000000" stroke-width="1" fill="none"></path></g></g><g transform="translate(10 9.999999999999993) rotate(0 115.83333333333334 124.16666666666664)"><path d="M58.360362342248365 1.633956003934145 M61.08172079796593 -3.6720280535519123 C98.19938867919458 -3.206903439527377, 132.27828779211268 1.4208160819951448, 175.26285450533032 2.9998268000781536 M56.66719196798901 -1.3931798692792654 C84.7496519702642 0.843854714076345, 109.28383888599153 0.7254972345040489, 173.8463652189821 -0.35451451502740383 M173.75 0 C212.3182413159973 2.6321200616657734, 230.73416333521408 22.43724300670955, 230.126356891046 57.62348767990868 M175.43495465442538 -1.553876232355833 C208.13647007505514 -0.44745145831257105, 234.3373224605496 14.931382077332174, 232.63311281098674 56.038499140801534 M227.88371392960352 59.00509589041273 C236.43743148699093 109.19415432067277, 231.70839169874478 155.46549958564958, 233.84344515080255 193.6908743890623 M230.05751811030012 58.70670229631166 C232.53308904973483 100.55945007588403, 234.48843783942675 147.1940830025511, 229.76517824890715 191.66925299602246 M231.66666666666669 190.41666666666663 C231.2559429916243 226.9852598065303, 209.97612102619476 250.47694433604673, 172.93940867111087 248.27929652606443 M233.91337864721817 193.4506798672179 C232.5947459269936 233.5417530186267, 213.6599621311865 247.17092339203998, 172.42888438198716 251.16133623526738 M172.39301805570722 249.4579003763695 C142.69943707304387 247.1950547876612, 100.83964591581996 243.61444606211342, 55.49511632199089 245.67664548878864 M174.67707449756563 247.14640532371894 C143.63290661519082 249.83576189091735, 109.60809259939317 249.8236437301927, 56.64930550816159 247.54285113451377 M57.91666666666667 248.3333333333333 C20.256760105076765 251.92814327155546, -2.929472077637911 228.48111811818345, -2.7324384339153767 188.88102313751972 M54.10823839033644 251.69200659667447 C16.443866251181397 249.728921888334, 4.055138439871371 226.21540880871726, -1.7053410461172462 193.49902954107768 M2.2974586971104145 187.0454348834852 C3.61848231847398 155.42032171684934, 4.2913742929231375 110.74712429118031, 0.5411102063953876 57.8474395784239 M-0.9352391306310892 189.48859197335935 C3.122973717423155 143.5833812881416, 1.365515805454924 93.8338350468936, -0.5300615970045328 59.313317660863206 M0 57.91666666666667 C3.672797691076994 20.922901533130144, 18.213239058438276 0.7903676517307758, 61.39694838846724 -3.321006964892149 M-0.163083303719759 57.72251281018059 C-0.638331495784223 17.205922555323276, 15.121001343201435 2.583615454100072, 62.51573926104854 -3.3667965928092594" stroke="#000000" stroke-width="1" fill="none"></path></g><g transform="translate(30 31) rotate(0 88.5 50)"><text x="0" y="18" font-family="Virgil, Segoe UI Emoji" font-size="20px" fill="#000000" text-anchor="start" style="white-space: pre;" direction="ltr">OSC app #1</text><text x="0" y="43" font-family="Virgil, Segoe UI Emoji" font-size="20px" fill="#000000" text-anchor="start" style="white-space: pre;" direction="ltr"></text><text x="0" y="68" font-family="Virgil, Segoe UI Emoji" font-size="20px" fill="#000000" text-anchor="start" style="white-space: pre;" direction="ltr">Sneds and </text><text x="0" y="93" font-family="Virgil, Segoe UI Emoji" font-size="20px" fill="#000000" text-anchor="start" style="white-space: pre;" direction="ltr">receives messages</text></g><g transform="translate(13.333333333333343 273.3333333333332) rotate(0 105.83333333333333 110.00000000000001)"><path d="M52.74217232937614 0.9838446490466595 M50.27957325304548 0.8638310916721821 C95.03149849696396 -0.3571289465297012, 136.16490491153672 -5.230516879307106, 158.44092370197177 0.5780178792774677 M54.095290069157876 1.3302616532891989 C79.11512897574964 -1.8240123861314106, 102.83854492396738 -2.6905324929238605, 158.603410506621 -0.021434897556900978 M158.75 0 C197.15946522893177 1.6849546544253826, 210.11279043431082 18.479276840471556, 214.29878672833243 51.984163335214056 M157.1168108470738 -3.6736009009182453 C189.6536042995544 3.4720326790586107, 213.75611750489722 17.920301115781893, 211.2192152083541 55.58732246054957 M213.1931906255583 51.75468632454673 C210.33488387730904 78.54626754710141, 215.5621860709507 101.10327922009554, 213.26144974554578 164.8573339072367 M210.31624436813095 54.6818940496693 C213.85962893088967 76.07962190631467, 213.82121033986718 102.6402583170372, 211.63964826303223 166.87797149581218 M211.66666666666666 167.08333333333337 C213.8102776693801 204.60782309166262, 197.06179097832904 218.85120381042364, 156.70748202875257 217.61500991508368 M214.1257996248702 167.8903587770959 C210.50425672537335 202.47083494226555, 191.3068314321132 216.3989484259859, 163.26397524084896 221.2988510200754 M159.42529452964664 217.1422405727208 C127.68503386504017 219.68227577611498, 99.774008277338 221.12488210603289, 54.31013028944532 219.88253514841202 M160.32046028412879 219.6883751805872 C123.65257290711936 220.6355728751204, 84.64797936861092 220.5367148166678, 52.14884490209321 220.47560227476063 M52.916666666666664 220.00000000000003 C17.09222922929459 216.1915717236698, 3.3586732633411884 200.87820585361789, 3.59480993822217 164.15386125569546 M55.59698220963279 217.51157451793554 C14.826519919828407 219.33749448154126, -0.6038815239444375 197.9960687891684, 1.3955885550007219 171.13847177320474 M2.8453511111438274 171.02681935702765 C-2.0617387773313864 126.81711350839277, 1.8551843879899637 87.80789670394734, -3.3456518538296223 50.95603045697013 M0.6653922442346811 166.23235478562617 C-0.5259244327278183 137.64192844034795, 2.4562029357223465 111.00078760227188, -1.6605034824460745 54.75306551220516 M0 52.916666666666664 C0.7903676517307758 17.475805585169127, 17.444735032402804 3.99919356033206, 54.53401264424125 -1.092316497117281 M-2.927649211138487 52.36159580076734 C2.583615454100072 16.14047375348293, 18.041887707904806 4.355992717482149, 50.817033666434384 -4.184554212354123" stroke="#000000" stroke-width="1" fill="none"></path></g><g transform="translate(37.2222222222222 292.6666666666665) rotate(0 63.999999999999986 37.5)"><text x="0" y="18" font-family="Virgil, Segoe UI Emoji" font-size="20px" fill="#000000" text-anchor="start" style="white-space: pre;" direction="ltr">OSC app #2</text><text x="0" y="43" font-family="Virgil, Segoe UI Emoji" font-size="20px" fill="#000000" text-anchor="start" style="white-space: pre;" direction="ltr">Only receives</text><text x="0" y="68" font-family="Virgil, Segoe UI Emoji" font-size="20px" fill="#000000" text-anchor="start" style="white-space: pre;" direction="ltr">messages</text></g><g><g transform="translate(246.46825396825392 163.48513347829163) rotate(0 59.25662911085408 20.845853535186308)"><path d="M-0.13802081085741524 -0.0025608982890843457 C20.014693127696702 7.085981546692487, 100.46438220205403 35.763347845039945, 120.18287868760521 42.74121638560257 M-1.6696204658970237 -1.0495093152299524 C18.49274700158585 5.6445280497669525, 99.47206398917977 33.47089419290391, 119.85584453497076 40.7956345684599" stroke="#000000" stroke-width="1" fill="none"></path></g><g transform="translate(246.46825396825392 163.48513347829163) rotate(0 59.25662911085408 20.845853535186308)"><path d="M89.85383988165299 43.135617034286796 C97.58529250591741 39.73221933846174, 103.29029603175869 42.445283780290424, 118.71465681310737 42.52311250080875 M89.67608226736078 40.59781753528917 C97.92752577060361 41.874066881702305, 104.76639153231496 40.87192678007923, 120.00800510220223 41.738375399052714" stroke="#000000" stroke-width="1" fill="none"></path></g><g transform="translate(246.46825396825392 163.48513347829163) rotate(0 59.25662911085408 20.845853535186308)"><path d="M96.63509823156568 23.767226869443995 C102.78051255430849 24.982807175039042, 106.86558927504805 32.32264924142191, 118.71465681310737 42.52311250080875 M96.45734061727347 21.229427370446366 C103.15108229115704 27.393516980138493, 108.26504262702768 31.317990725275465, 120.00800510220223 41.738375399052714" stroke="#000000" stroke-width="1" fill="none"></path></g></g><g><g transform="translate(341.8442834961449 284.8212787955177) rotate(0 -75.25951883275579 -37.154796858305076)"><path d="M0.8204739723354579 0.2991186048835517 C-24.088868346113568 -12.249095895695797, -125.27158930400314 -62.51309677416142, -150.57740874952736 -74.6087123214937 M-0.2079159215278923 -0.5894480728916824 C-25.14617055117324 -13.093836331381759, -126.07022408354953 -61.44254025891106, -151.33951163784698 -73.67723439890138" stroke="#000000" stroke-width="1" fill="none"></path></g><g transform="translate(341.8442834961449 284.8212787955177) rotate(0 -75.25951883275579 -37.154796858305076)"><path d="M-120.99016141155933 -70.09886554253642 C-129.595080518551 -71.2403550892389, -131.87065016557236 -70.59399405636535, -152.1085858748211 -73.65972737665466 M-122.20119820451562 -70.05589833573792 C-131.90690621588334 -71.30314732939428, -141.93827818599235 -73.91781810490993, -150.79256105636344 -73.82571560680113" stroke="#000000" stroke-width="1" fill="none"></path></g><g transform="translate(341.8442834961449 284.8212787955177) rotate(0 -75.25951883275579 -37.154796858305076)"><path d="M-129.89462401037648 -51.61020555290747 C-136.7651504720284 -56.63147973292231, -137.2014698579374 -59.80402100169473, -152.1085858748211 -73.65972737665466 M-131.10566080333277 -51.56723834610898 C-137.62899214408162 -59.27482494837946, -144.50752948826573 -68.43584108223233, -150.79256105636344 -73.82571560680113" stroke="#000000" stroke-width="1" fill="none"></path></g></g><g><g transform="translate(345.4682539682539 329.1419344225995) rotate(0 -71.2080440377361 31.587853379060135)"><path d="M1.1690951373428107 -0.20862532518804078 C-22.440235986601273 10.738555222506509, -118.61355588232955 53.89332633343928, -142.55677486943281 64.53946432437114 M0.3237313551083205 -1.3637575662508608 C-23.378195909935695 9.335095946731853, -119.64767165059081 51.721076594455475, -143.585183212815 62.76032092317305" stroke="#000000" stroke-width="1" fill="none"></path></g><g transform="translate(345.4682539682539 329.1419344225995) rotate(0 -71.2080440377361 31.587853379060135)"><path d="M-122.42377679567116 41.59209570357984 C-126.02325315245176 46.61664929901191, -132.31349427586676 52.86453733395989, -142.5530555884374 64.59287725470327 M-123.07346488400626 42.49838368012046 C-127.48238650164078 47.77642121635464, -132.77493298396865 52.46959184017648, -143.79530030237711 62.19829067017249" stroke="#000000" stroke-width="1" fill="none"></path></g><g transform="translate(345.4682539682539 329.1419344225995) rotate(0 -71.2080440377361 31.587853379060135)"><path d="M-114.01326908945833 60.31062562741665 C-119.32616675400075 61.206678400149556, -127.50821973315966 63.244126581882405, -142.5530555884374 64.59287725470327 M-114.66295717779343 61.21691360395727 C-121.13744893770752 61.455204244058, -128.66999928296158 61.162994579039406, -143.79530030237711 62.19829067017249" stroke="#000000" stroke-width="1" fill="none"></path></g></g><g transform="translate(582.1349206349206 431.7857142857144) rotate(0 93.33333333333348 57.77777777777783)"><path d="M-3.8036291114985943 3.0191588513553143 C40.673442901422646 -1.922782475998008, 73.93010552103334 -1.079059536506736, 190.2337261127932 1.5265239588916302 M1.6371038611978292 0.6404838804155588 C51.37481660954663 -3.144659631575151, 99.54570158384757 -1.2416242888818223, 186.47654525997768 -1.3504222985357046 M189.17183932537864 -0.8105913288891315 C188.10445776739084 44.45503453786179, 186.11597660341226 87.34652634089201, 188.8102776693804 117.80226753610714 M187.07017938854824 1.962597930803895 C186.56763559194934 42.92619806383223, 186.05062377067935 85.68016723067404, 185.10099206926952 114.87706458340926 M183.80890723938774 112.6502413596545 C122.99713678782206 113.52914260534787, 63.19176358357083 117.57929407267117, -0.11746485158801079 117.40970455068691 M186.35504184725414 117.1138976789598 C140.47730026456242 117.6965992204432, 95.45643696251031 117.71925965468927, 0.4756022747606039 117.35296052466674 M3.3586732633411884 114.0726502980624 C2.996163346287277 86.86338274222288, 1.5294030685391693 66.67426823203768, -2.4455382339656353 -0.576091755181551 M-1.6856158915907145 117.19085258017822 C3.6157402970310732 84.37762896571729, 0.19998961467709986 49.526771455382345, -0.03461354412138462 1.1696117166429758" stroke="#000000" stroke-width="1" fill="none"></path></g><g transform="translate(600.3015873015873 462.2857142857144) rotate(0 75.5 25)"><text x="75.5" y="18" font-family="Virgil, Segoe UI Emoji" font-size="20px" fill="#000000" text-anchor="middle" style="white-space: pre;" direction="ltr">JSON-RPC API</text><text x="75.5" y="43" font-family="Virgil, Segoe UI Emoji" font-size="20px" fill="#000000" text-anchor="middle" style="white-space: pre;" direction="ltr">(HTTP server)</text></g><g><g transform="translate(509.8268287395142 455.6411329589569) rotate(0 32.67033164648342 -53.75513010294071)"><path d="M-0.9747585620731115 -0.5705498311668634 C9.712322438815619 -18.939853229242956, 53.18582240720284 -91.04806840130883, 64.13418995289138 -109.25456776801285 M0.7143544634990393 1.7443075621314348 C11.76393630779349 -16.536783798262125, 55.813783335788216 -89.45608465641561, 66.31542185503994 -107.90941915416879" stroke="#000000" stroke-width="1" fill="none"></path></g><g transform="translate(509.8268287395142 455.6411329589569) rotate(0 32.67033164648342 -53.75513010294071)"><path d="M59.89539129901417 -80.09698540986852 C61.64568805018504 -87.96174838617236, 62.36679271456649 -97.7659507205544, 65.64350819583987 -109.85366240085823 M61.59336408190169 -79.25278264646755 C62.75781138378175 -89.02430704280565, 65.63754053076761 -100.39373684602394, 66.06468287944799 -107.3305099535526" stroke="#000000" stroke-width="1" fill="none"></path></g><g transform="translate(509.8268287395142 455.6411329589569) rotate(0 32.67033164648342 -53.75513010294071)"><path d="M42.214442879462425 -90.51351388009269 C49.369709858322885 -95.09953664126965, 55.41234378966117 -101.76862089267092, 65.64350819583987 -109.85366240085823 M43.91241566234994 -89.66931111669172 C51.657071283431314 -95.55344020548222, 61.109020293124004 -103.05092187062691, 66.06468287944799 -107.3305099535526" stroke="#000000" stroke-width="1" fill="none"></path></g></g><g><g transform="translate(887.6904761904765 406.10791863465164) rotate(0 -54.477446891330146 29.07214862897422)"><path d="M-0.5509275052696466 0.5783931288868189 C-18.6959181362142 10.45926728886052, -91.37740531104298 48.886333066805406, -109.58527550436546 58.30785168173516 M1.3606968251243234 -0.1635544237866997 C-16.843435175878284 9.46424566358759, -91.67916196829319 46.86073094116817, -110.31559060778457 56.587494537148416" stroke="#000000" stroke-width="1" fill="none"></path></g><g transform="translate(887.6904761904765 406.10791863465164) rotate(0 -54.477446891330146 29.07214862897422)"><path d="M-19.668073841339744 23.55744533037471 C-14.346363455233435 17.937097251019736, -11.519657156263225 10.673615865522045, -0.678700128942728 0.8660758055746556 M-21.54635304395745 23.14205577114301 C-15.797907377871589 18.255864181085666, -10.240839826740627 12.544552374672302, -0.2289894254878163 0.8514422776177526" stroke="#000000" stroke-width="1" fill="none"></path></g><g transform="translate(887.6904761904765 406.10791863465164) rotate(0 -54.477446891330146 29.07214862897422)"><path d="M-29.29633117211144 5.43517551784072 C-21.807698281304475 4.215426112864461, -16.666464605143503 1.308339470151012, -0.678700128942728 0.8660758055746556 M-31.174610374729145 5.019785958609021 C-23.211465115006234 4.512129374339031, -15.377080546621375 3.0871751108895196, -0.2289894254878163 0.8514422776177526" stroke="#000000" stroke-width="1" fill="none"></path></g><g transform="translate(887.6904761904765 406.10791863465164) rotate(0 -54.477446891330146 29.07214862897422)"><path d="M-88.8932827869017 35.3365696691672 C-93.6770628821042 40.162503414865355, -100.59559637878839 43.53142302395149, -110.44336323145765 56.87517721383625 M-90.7715619895194 34.9211801099355 C-94.76450987679057 40.10834365493878, -98.79600915039089 44.858497095318796, -109.99365252800274 56.86054368587935" stroke="#000000" stroke-width="1" fill="none"></path></g><g transform="translate(887.6904761904765 406.10791863465164) rotate(0 -54.477446891330146 29.07214862897422)"><path d="M-79.5754894536415 53.620407608300525 C-86.45024395302823 54.00832883507765, -95.60867268972757 52.982014497207, -110.44336323145765 56.87517721383625 M-81.4537686562592 53.205018049068826 C-87.5874255890049 53.97840406734825, -93.82280959398554 54.40398517349844, -109.99365252800274 56.86054368587935" stroke="#000000" stroke-width="1" fill="none"></path></g></g><g><g transform="translate(885.4682539682541 309.6570704247464) rotate(0 -59.40450125266278 -7.67707649945892)"><path d="M0.9616755757480859 0.24171693585813037 C-19.11292225670208 -2.202623003571152, -99.61262802389211 -13.229189983749981, -119.77067808107373 -15.595869934775942 M0.007416523676365694 -0.6769856181554497 C-19.751588681844517 -2.90963105415818, -97.90898771649918 -11.967911819866146, -117.52166287059795 -14.502645058755839" stroke="#000000" stroke-width="1" fill="none"></path></g><g transform="translate(885.4682539682541 309.6570704247464) rotate(0 -59.40450125266278 -7.67707649945892)"><path d="M-87.89612831394348 -22.7572316573442 C-100.17694935395392 -20.46473991253478, -107.86299663152488 -17.865965561078905, -116.34807457047414 -16.22180978228625 M-89.2975771216226 -22.092627135987676 C-94.77608591506106 -19.87894576173387, -99.87749351067366 -18.957704012000725, -117.76550967170756 -15.231581420836115" stroke="#000000" stroke-width="1" fill="none"></path></g><g transform="translate(885.4682539682541 309.6570704247464) rotate(0 -59.40450125266278 -7.67707649945892)"><path d="M-90.3716610049791 -2.3858855977080466 C-101.61233060245596 -7.373765309368382, -108.41607556067142 -12.035523586666137, -116.34807457047414 -16.22180978228625 M-91.77310981265822 -1.7212810763515236 C-96.56497168955701 -3.798742404257108, -101.14656316003695 -7.155106929247171, -117.76550967170756 -15.231581420836115" stroke="#000000" stroke-width="1" fill="none"></path></g></g><g><g transform="translate(763.2460317460319 324.38828549619217) rotate(0 60.89202641044841 7.206050104422786)"><path d="M-0.0922596897929906 0.9325140025466678 C20.16156115293226 2.928143642339326, 100.95467971412943 10.793132988081462, 121.20563915243574 13.065909920964941 M-1.5998347562737765 0.37647990854457003 C19.04477629562563 2.9962965940306256, 102.47004547287258 12.023673278053439, 123.38388757717067 14.03562030030097" stroke="#000000" stroke-width="1" fill="none"></path></g><g transform="translate(763.2460317460319 324.38828549619217) rotate(0 60.89202641044841 7.206050104422786)"><path d="M95.84129236761703 19.647277832546592 C100.37804287482285 18.017462434053343, 110.84318792063304 16.248155789613925, 125.05712814379686 15.031011913173451 M94.18141874142214 21.88746777880317 C104.2641286650089 19.092673220723363, 112.40368047528806 17.31184878501498, 122.72490187578106 14.136828522399618" stroke="#000000" stroke-width="1" fill="none"></path></g><g transform="translate(763.2460317460319 324.38828549619217) rotate(0 60.89202641044841 7.206050104422786)"><path d="M97.95246468843396 -0.7650457445882655 C102.0974585463309 3.187500917764437, 111.98507233074038 7.002179468366119, 125.05712814379686 15.031011913173451 M96.29259106223907 1.4751442016683125 C105.56301367441056 5.372293445275136, 113.0113101408342 10.275019951416187, 122.72490187578106 14.136828522399618" stroke="#000000" stroke-width="1" fill="none"></path></g></g><g><g transform="translate(576.9444444444445 278.77777777777817) rotate(0 -30.681364182354912 -15.401193753257388)"><path d="M0.3447732958942651 0.951766112074256 C-9.820619615539908 -4.296128393585484, -50.348988028988245 -26.234480624770125, -60.49800406359136 -31.754153618589044 M-0.9333594531007111 0.40583937557414185 C-11.343604931849988 -4.680331997356067, -51.59582561315969 -25.301506164552023, -61.70750166060403 -30.612659017127008" stroke="#000000" stroke-width="1" fill="none"></path></g><g transform="translate(576.9444444444445 278.77777777777817) rotate(0 -30.681364182354912 -15.401193753257388)"><path d="M-30.36814230565902 -27.601561565776294 C-43.35443845192342 -28.912178923235928, -54.192938393142114 -29.82139701988551, -62.000968800429256 -32.56496552055702 M-31.07846172691312 -27.430344922360902 C-41.631430430702466 -27.69376215582843, -50.12632252816519 -29.168150740017225, -60.89362774094567 -30.10468318829313" stroke="#000000" stroke-width="1" fill="none"></path></g><g transform="translate(576.9444444444445 278.77777777777817) rotate(0 -30.681364182354912 -15.401193753257388)"><path d="M-39.79805549392536 -9.375296461603135 C-49.526380850761996 -16.931737886974844, -57.14743102770055 -24.059686866120543, -62.000968800429256 -32.56496552055702 M-40.50837491517946 -9.204079818187743 C-48.01923722909435 -15.205617454813154, -53.584833857122206 -22.3417883617498, -60.89362774094567 -30.10468318829313" stroke="#000000" stroke-width="1" fill="none"></path></g></g><g><g transform="translate(588.3858495181281 368.0236241591891) rotate(0 -36.89288145200351 59.3794303393457)"><path d="M-0.49800406359136107 -0.7541536185890436 C-12.887254277141757 18.85186565735688, -61.78207584009501 98.5325106088693, -73.9907279854081 118.58788176774979 M1.441405073683709 1.46431178631261 C-11.184099846845484 21.089370488704493, -62.54066980536091 99.62321325861538, -75.22716797769064 119.51301429728046" stroke="#000000" stroke-width="1" fill="none"></path></g><g transform="translate(588.3858495181281 368.0236241591891) rotate(0 -36.89288145200351 59.3794303393457)"><path d="M-69.78774882740252 89.35437426028481 C-72.44397014503352 99.3410532372617, -72.99494674195324 107.51605044265091, -75.01439504764969 118.2751203042455 M-68.98915452304207 90.30004004353366 C-70.53642447468611 101.11498264744603, -72.562779597579 113.01427465620742, -74.72593433756376 118.56205686209724" stroke="#000000" stroke-width="1" fill="none"></path></g><g transform="translate(588.3858495181281 368.0236241591891) rotate(0 -36.89288145200351 59.3794303393457)"><path d="M-52.55729167501403 100.50028600879348 C-60.96610277263107 106.75145008644922, -67.18126664045018 111.26243937317916, -75.01439504764969 118.2751203042455 M-51.75869737065358 101.44595179204232 C-59.96759701175567 107.90131209533709, -68.55794838175876 115.55453435442323, -74.72593433756376 118.56205686209724" stroke="#000000" stroke-width="1" fill="none"></path></g></g></svg>