<svg version="1.1" xmlns="http://www.w3.org/2000/svg" viewBox="0 0 1016.5 299.0615299753845" width="1016.5" height="299.0615299753845">
  <!-- svg-source:excalidraw -->
  
  <defs>
    <style>
      @font-face {
        font-family: "Virgil";
        src: url("https://excalidraw.com/Virgil.woff2");
      }
      @font-face {
        font-family: "Cascadia";
        src: url("https://excalidraw.com/Cascadia.woff2");
      }
    </style>
  </defs>
  <g transform="translate(10 16) rotate(0 107.99999999999997 87)"><path d="M46.64442699030042 0.6352487914264202 M45.933576475828886 -0.8299352638423443 C84.69935436295343 -3.9151446474529794, 121.93133021760727 -4.235714281890541, 170.7055556885897 -3.6213560812175274 M41.92972835339606 1.4173467811197042 C87.85041787391523 0.37060335474088824, 129.9967791626229 1.2775398214347664, 170.519070053473 -1.4694487992674112 M172.4999999999999 0 C205.0361724384128 -1.4202253706753254, 212.3011321313678 18.44911326095462, 216.47402112558473 44.97375310584903 M176.14621954038728 -1.3365659601986408 C197.86595526542504 -2.573382662795484, 214.64548419918853 15.067779035307467, 219.01821553912004 44.58228886816651 M216.8383590094744 39.92774634435773 C219.96737660342816 66.88772372482345, 218.61756850654248 97.27450850885361, 216.46434975787986 129.12716262415051 M216.17548581399012 42.37572712264955 C213.49442748306308 77.47632047245278, 214.783565502148 111.75093077477068, 217.77452828921366 128.7550486382097 M215.9999999999999 130.5 C213.78569059446443 160.57068539783359, 204.5548388250171 170.12492240592837, 175.4056300409137 175.6677049510181 M218.12945656850923 129.49801851436496 C216.41921431627114 155.39426072929055, 199.75966358389695 171.42085829470307, 174.05446294751007 174.2809392640367 M171.08278692886222 171.70784311369061 C146.48742083115494 174.7809664849378, 116.71225660722696 169.13283642569556, 45.44120718166232 174.01186602190137 M174.3267379645257 172.4682856258005 C142.78464619228606 173.67371305553243, 117.72481798510992 174.59977641431615, 43.390803480520844 174.9748082216829 M43.5 174 C15.962897349148989 173.51794077083468, 2.5189489610493183 159.68529881164432, -2.0646622888743877 131.18665374442935 M44.0589368827641 170.44226790592074 C14.69136603679508 174.6299621352926, 2.902232708595693 155.57507662270217, 0.821199705265462 127.83097286913544 M-1.4845069535076618 127.86484723165631 C-1.3928178724087774 111.73745708139613, -0.6750753101147711 92.0656829284504, -2.9839892275631428 43.355996299535036 M0.20135589875280857 130.15058869682252 C0.6614618738181888 102.56582327699289, -2.522506491374225 73.3945767628029, -1.8298582788556814 42.411021357402205 M0 43.5 C2.4847848899662495 13.55142356082797, 17.766704726964235 -0.8961247093975544, 47.32388632372022 -1.1832677014172077 M-0.8358473293483257 40.31356502696872 C-3.6942985573783513 10.61433678958565, 10.051170088909567 -3.068638246320188, 47.637029328010975 3.3426924178376796" stroke="#000000" stroke-width="1" fill="none"></path></g><g transform="translate(67.99999999999994 41) rotate(0 49 25)"><text x="49" y="18" font-family="Virgil, Segoe UI Emoji" font-size="20px" fill="#000000" text-anchor="middle" style="white-space: pre;" direction="ltr">OSC app</text><text x="49" y="43" font-family="Virgil, Segoe UI Emoji" font-size="20px" fill="#000000" text-anchor="middle" style="white-space: pre;" direction="ltr">only sends</text></g><g transform="translate(260.99999999999994 23) rotate(0 93 80.5)"><path d="M41.680308748036616 2.433576475828886 M40.67237962409853 -3.3131651394069195 C67.91660143020562 -2.042761952346191, 100.69269503196702 2.6324951344076544, 146.60543824359775 -3.140543293207884 M39.53888627327978 1.8292974885553122 C77.39557432387954 -2.442539677331224, 118.7400191036053 -0.23621432513929896, 147.51808621920645 -0.7101126853376627 M145.75 0 C176.22955287372073 -1.3365659601986408, 188.62453525140882 14.357787421594061, 182.30113213136792 44.19911326095461 M142.5899611003697 -2.2377240546047688 C173.0451466600721 0.5910950073972341, 189.54710207190365 14.380779527562357, 184.64548419918864 40.81777903530746 M188.39398039504886 40.07764940336346 C187.97122462588362 55.83800214217043, 191.27390523749403 72.49464470641686, 185.8758747689426 121.10097162798044 M185.51307543553412 39.914348667487495 C186.34479790945537 58.12985030687413, 186.0230846406985 80.33345581283791, 184.89284529723227 121.28534269891676 M186 120.74999999999997 C188.12945656850934 146.58135184769827, 173.93504024421176 161.2442950122058, 148.8048388250172 157.12492240592834 M186.36453418806195 117.17979193851349 C182.65074361171574 147.22821446352947, 170.24036903188875 159.37020496819164, 144.00966358389707 158.42085829470304 M148.57729686424136 157.44693379476664 C122.08677096930333 162.11701220489104, 91.32587077626958 158.4442010543402, 42.767694961279624 164.6534759290516 M147.63641163147986 159.97586316429076 C122.07059680442326 159.91734701649284, 97.57725550336764 159.2858656670246, 40.98144867457449 160.7589703854173 M40.24999999999999 160.99999999999997 C13.975603549430765 157.44226790592072, 0.7140867002308369 145.26244017605978, 2.5189489610493183 120.93529881164429 M40.41640524938702 161.54779316112396 C9.040321123662093 160.82429362628605, 0.8776344558224078 145.8761503367995, 2.902232708595693 116.82507662270216 M-0.741538155823946 117.96168022230265 C-2.3966287385206675 101.75924124582669, 1.3847353447694328 85.13815068854018, 3.8482816331088543 40.65271179750561 M-1.6169840451329947 119.31315738521513 C-3.091280656503513 96.91740185269153, 0.6505207842122767 74.67112713987007, 1.2423924449831247 39.77571178041398 M0 40.24999999999999 C-0.8358473293483257 10.230231693635382, 17.01408347363273 2.9066890589892864, 43.51670472696423 -0.8961247093975544 M-3.2124335281550884 36.871162425726645 C2.9632118782028556 9.017239396708705, 12.262918525996305 4.223501701094209, 35.80117008890956 -3.068638246320188" stroke="#000000" stroke-width="1" fill="none"></path></g><g transform="translate(295.49999999999994 49.5) rotate(0 60.5 25)"><text x="60.5" y="18" font-family="Virgil, Segoe UI Emoji" font-size="20px" fill="#000000" text-anchor="middle" style="white-space: pre;" direction="ltr">OSC app</text><text x="60.5" y="43" font-family="Virgil, Segoe UI Emoji" font-size="20px" fill="#000000" text-anchor="middle" style="white-space: pre;" direction="ltr">only receives</text></g><g transform="translate(482.99999999999994 11) rotate(0 106.5 87)"><path d="M40.50740449503064 0.42237962409853935 M45.02060354873538 1.0539010055363178 C71.71896805446593 -0.8590889620408437, 101.06175318397577 3.7743971896544077, 171.34472204372275 -1.4222274534404278 M43.73701056279242 0.7368765529245138 C94.59266039710488 1.1413928017392738, 140.29971442148081 3.8260621175542457, 171.32310977019358 -0.6682829800993204 M169.4999999999999 0 C195.33996110036958 -2.2377240546047688, 211.8221601732074 14.993720900267363, 215.6245352514087 44.4411207549274 M169.9015768058597 0.5139956586062908 C194.39190829601128 4.305356765724719, 208.87643829789002 17.253077454306187, 216.54710207190354 44.464112860895696 M216.76703036949027 41.822965670377016 C213.07786691362026 69.576109080296, 210.95344638997676 91.39814973752945, 212.3660588376223 129.52615087106824 M214.4528150204568 44.33385247550905 C213.43668490884815 68.67525940248743, 216.0712590241245 90.84229461010545, 214.06472828425456 129.99900925718248 M212.9999999999999 130.5 C213.36453418806184 155.92979193851352, 196.98666398599732 171.7572680823505, 170.8517069108783 174.24429501220584 M210.08760314062226 130.19120098277926 C210.3640195807441 163.28918210361152, 200.90932343211014 177.25139139387755, 167.1570356985553 172.37020496819167 M166.28474320098746 170.33905487135053 C145.40985350776455 177.6609515228495, 113.22088834457094 171.23836162474007, 39.59959961101413 177.77282326295972 M168.4676688555627 174.34332687221467 C138.88351073954246 174.9872287447378, 108.0635986104607 175.3209077651426, 43.77946844138205 172.22113395296037 M43.5 174 C14.666405249387026 174.547793161124, 2.523680616170168 156.0870231501758, 0.7140867002308369 128.17910684272647 M39.69448213651776 173.84721184894443 C11.46957431640476 172.32182717416435, -1.0804759124293923 158.64723112080247, 0.8776344558224078 128.79281700346618 M0.7973748557269573 132.58166079595685 C5.146316947098821 110.8673073139973, 0.5992127076350151 93.5631596731022, -0.19977282360196114 40.26603190973401 M1.9119431618601084 129.9083661492914 C2.8343691475875676 110.17597715472803, 3.2253290660865606 90.3524683939293, -0.41792366467416286 41.90678251348436 M0 43.5 C-3.2124335281550884 11.121162425726652, 10.63145225122571 -2.6683810837566853, 47.097416806966066 2.9066890589892864 M2.5767059810459614 39.674411069601774 C0.6506135186180471 11.465157211758196, 11.203768779896201 1.6227743694558736, 42.34625185932964 4.223501701094209" stroke="#000000" stroke-width="1" fill="none"></path></g><g transform="translate(509.49999999999994 32.5) rotate(0 81 37.5)"><text x="81" y="18" font-family="Virgil, Segoe UI Emoji" font-size="20px" fill="#000000" text-anchor="middle" style="white-space: pre;" direction="ltr">OSC app</text><text x="81" y="43" font-family="Virgil, Segoe UI Emoji" font-size="20px" fill="#000000" text-anchor="middle" style="white-space: pre;" direction="ltr">sends + receives</text><text x="81" y="68" font-family="Virgil, Segoe UI Emoji" font-size="20px" fill="#000000" text-anchor="middle" style="white-space: pre;" direction="ltr">on same socket</text></g><g transform="translate(27.999999999999943 108) rotate(0 89 33)"><path d="M15.864564979448918 -1.083877021446824 M17.1698247846216 1.1121784690767527 C63.216039421502515 -1.7912151791620998, 106.93602687027307 -0.9127045251894741, 161.02548754774034 -1.1905830260366201 M17.24913195986301 -0.65116545278579 C69.50136742787436 -1.042975349491462, 122.44102374091744 -1.780352605646476, 160.68561418075114 0.7821190385147929 M161.5 0 C170.69319679774344 -0.19737612642347813, 178.45700141228735 5.415172522887589, 177.336216295138 14.996782606467608 M162.7928523067385 -0.7263014260679483 C173.32631494207308 0.4485688094981013, 178.6650032828562 7.073466751445086, 178.80944161517544 16.656206134427343 M178.9155967887491 17.272589707747105 C179.95136178667656 29.822773729357877, 179.4484776967298 44.18084387462588, 179.1430895384401 47.57511004246773 M177.79966114182025 15.94297680538148 C177.74644084752538 25.628110185358683, 176.98914294422605 35.401838955655705, 177.00686289090663 49.77860695403071 M178 49.500000000000014 C177.20011224783957 61.11831546388568, 171.2057572249323 67.60700470767917, 162.7725560311228 65.55217832885684 M177.72424438036978 50.50048482976855 C178.334318826627 61.60408011125402, 171.95105034215376 68.25106610404329, 159.66370042068883 67.98300707088785 M162.9532617982477 64.40026321448387 C117.03055245568976 64.69487282489428, 72.80236787814647 66.38909545396456, 16.773043518885974 66.08370014466347 M161.7965900124982 66.6964933006093 C116.32791160186753 64.7380028077867, 70.00307493470609 65.90325540392661, 16.111547422595326 65.00563609879465 M16.500000000000004 66.00000000000001 C7.439426684752108 64.06549966894092, -0.2654805537313223 61.488190835341825, -1.8797501679509878 48.079642837867155 M17.45981278456748 65.12292385660113 C3.941856936644765 67.47618877934293, -1.4914323379285632 62.16961585031824, -1.543895708490163 48.710255471337604 M-1.605363780632615 48.98494508303703 C1.9917552839685233 37.141536381002524, -1.5662206638883798 25.276668099500238, -1.2072091046720743 15.309308374300603 M-0.19489588122814894 49.680917236022665 C-0.8567657341901213 38.745800211559995, -0.0639957358781248 28.440904553979642, 0.05704082269221544 15.917552175931636 M0 16.500000000000004 C0.6821362022310495 4.896617894992234, 3.6424091700464505 0.23304731212556362, 17.82216879166663 -1.5902574602514505 M1.4268036130815744 17.737207060679797 C0.41994977993890625 4.695827430952342, 6.685919500421734 -1.4797951425425708, 17.905329985450958 0.4837277029640972" stroke="#000000" stroke-width="1" fill="none"></path></g><g transform="translate(40.49999999999994 122.5) rotate(0 75 19)"><text x="75" y="15" font-family="Cascadia, Segoe UI Emoji" font-size="16px" fill="#000000" text-anchor="middle" style="white-space: pre;" direction="ltr">udp:4000</text><text x="75" y="34" font-family="Cascadia, Segoe UI Emoji" font-size="16px" fill="#000000" text-anchor="middle" style="white-space: pre;" direction="ltr">(or random port)</text></g><g transform="translate(287.99999999999994 119) rotate(0 65.99999999999994 22)"><path d="M9.697669094428424 -0.8151428457349539 M9.371228361502293 1.5642380770295858 C44.65453069936481 -0.8239338521845647, 77.82982560619705 0.4819074149243525, 121.45700141228724 -0.08482747711241245 M11.067915710620586 0.3592673661187291 C51.305717604234786 -0.09799238862469739, 91.90549135301255 0.5752927082590764, 121.82902765553433 -0.006039696745574474 M120.99999999999989 0 C130.01111599368343 0.24679776467382908, 133.17489857040334 5.195558611924451, 132.91559678874899 11.772589707747105 M122.14308953844 -1.9248899575322866 C129.30114297516013 -0.4607793738134205, 130.7188466523773 3.5134235759886616, 131.58238895284 9.697142545413229 M130.01372578181315 11.557213908061389 C133.09129245763634 16.772219085507103, 131.0188486743531 24.058396977186213, 130.7057572249322 34.60700470767917 M132.86217698734242 11.145356011576954 C132.59008816225443 17.057995054125794, 133.08877772433672 23.598515146784493, 131.92358380835492 32.31401310581715 M131.9999999999999 33.000000000000014 C131.1056263502686 40.02288715479276, 126.78584900063763 45.38377645052971, 122.45326179824758 42.40026321448387 M132.27304351888586 33.08370014466347 C130.82788179563346 41.01549036207921, 129.9352679247346 44.984661535453064, 121.33313550697628 43.18405725760387 M120.22309484519053 42.01127219758929 C91.87383400741956 43.28606227608399, 68.44659503549332 42.77191910715775, 10.734519446268681 44.988190835341825 M120.65663281362492 43.32254649419339 C83.36285089328877 42.61316625336187, 45.167979304678695 44.14279366591947, 10.370751502923671 43.54579762835057 M11.000000000000004 44.000000000000014 C5.450769946600001 44.44942566193642, -1.7738726679235697 41.72577999470136, -1.605363780632615 32.48494508303703 M9.79279089532793 42.80930837430061 C1.6457297011899463 43.551739473175274, 0.41610964285209784 38.161903446943825, 0.14321624385193 32.39130697650836 M0.11408164538443089 31.83510435186328 C1.3554613811708986 26.23691688720138, 0.7154287917353213 22.05096658989788, -1.8575908299535513 11.233047312125567 M0.21031639259308577 33.18258686084302 C-0.4857330240868033 25.346133199706685, -0.7794819690845908 17.621325237117713, 0.31237644236534834 11.72324941772968 M0 11.000000000000004 C-1.659345144405961 5.417201046521466, 3.7117166376362256 -1.3928513284772635, 10.945286458358172 -1.0773685928434134 M1.673523074015975 9.632305825129155 C2.2335359756834805 3.8817488839539402, 3.700377340583753 -1.1520593483932315, 11.039657530654225 0.7086622099392117" stroke="#000000" stroke-width="1" fill="none"></path></g><g transform="translate(312.99999999999994 130) rotate(0 42 9.5)"><text x="0" y="15" font-family="Cascadia, Segoe UI Emoji" font-size="16px" fill="#000000" text-anchor="start" style="white-space: pre;" direction="ltr">udp:57120</text></g><g transform="translate(535 123) rotate(0 56.99999999999994 21)"><path d="M11.883851433172826 -0.10746931470930576 M11.624828225001696 0.583249056711793 C38.036716486979245 -0.08148475185967907, 70.9755880100652 -0.1383779217395924, 102.64238483272482 -1.941739534959197 M11.151315164752308 -0.36568224150687456 C30.60524235004557 -0.2626658100914203, 50.4298484370112 -0.5521012861561023, 104.1845390619709 -0.6149395974352956 M103.49999999999989 0 C110.76915248669673 0.259685343131423, 113.27119829691935 3.5129905994981536, 114.50138440169383 8.826454168185595 M102.56922837533045 -1.277094418182969 C109.62544872863207 -1.2644201959483325, 111.97272137803945 5.1336393480189155, 115.58164087338362 11.686599106062207 M113.31053019128728 9.102863634005192 C112.6863072120304 18.39769810335711, 114.78267582288932 22.14623168464751, 115.53304666839529 33.1957301143557 M114.97330392617721 10.853820505551997 C113.08544302527781 15.313750305492437, 113.89862070028659 21.031068220362073, 114.2776745976879 31.130504998378466 M113.99999999999989 31.50000000000001 C115.6081716660409 38.55449146591128, 108.85755100287486 43.344459777697935, 103.71355345286418 42.43872321210803 M112.41792925633479 31.36313254199923 C115.27774983150873 39.962116763461395, 110.53828904433165 41.05045893834905, 104.96157507104787 43.4902545575984 M105.45487320981908 41.684711182490005 C79.9188198301009 41.51522146672943, 53.65706416461611 42.91002660007217, 9.844996040686969 40.303880000486984 M104.19152147788543 42.43325901310892 C81.995330474805 42.068408869830904, 60.70045802183443 42.846031956998644, 11.045481306500736 42.92814609687777 M10.500000000000004 42.000000000000014 C2.133935535326601 40.70222575031222, -0.8608066793531179 38.5007809456438, 1.0804847721010447 31.580434089526545 M12.197027171030644 43.19857282005252 C2.4223952184431266 41.73958946811037, 1.5232151548378168 39.21873917626218, 0.35488626761361974 31.81502397703008 M-1.1272013131529093 32.365412795916214 C-1.8635888821538538 26.10391504941509, 0.7252952926699072 18.865208211727445, 0.6587993558496237 11.403706217184666 M-0.6054091332480311 31.795728984288882 C-0.7011431279499083 26.146203675773002, -0.6878731372673064 21.658973708748825, 0.31876973528414965 9.833891901187602 M0 10.500000000000004 C-1.8356848116964102 5.158454602584244, 2.762121343985201 1.8593955095857382, 11.09192445315421 0.7852782066911459 M-1.1193567868322134 10.028542822226886 C0.259311647247523 4.132524285186083, 1.2797702173702428 -1.9118373210541901, 8.534157470893119 0.21527748154476267" stroke="#000000" stroke-width="1" fill="none"></path></g><g transform="translate(555 133) rotate(0 37.5 9.5)"><text x="0" y="15" font-family="Cascadia, Segoe UI Emoji" font-size="16px" fill="#000000" text-anchor="start" style="white-space: pre;" direction="ltr">udp:4567</text></g><g><g transform="translate(361.7274482688121 268.60392641089857) rotate(0 -0.6316262218457496 -58.27475776880044)"><path d="M-0.3104347553104162 0.6039264108985662 C-0.9218430316823589 -18.403991774531693, -2.640188355931574 -95.92717634992049, -2.9907007125037124 -115.22814987897867 M1.7274482688121497 -0.124616168718785 C1.4502464632873366 -19.40198009234542, 0.19617941202453315 -97.61864934063823, -0.6295614216680043 -117.15344194849948" stroke="#000000" stroke-width="1" fill="none"></path></g><g transform="translate(361.7274482688121 268.60392641089857) rotate(0 -0.6316262218457496 -58.27475776880044)"><path d="M-14.551204946409676 0.12870087512984907 C-9.487204339571807 0.7606339260911681, -4.108764892601087 -0.3736388877188954, -1.713599526230246 -0.5627306601963937 M-15.840734859747577 0.2302541412993524 C-9.964438699620391 0.40205754754783307, -5.478639086974864 0.6555586341067585, -0.27827104381285606 0.6784441096242517" stroke="#000000" stroke-width="1" fill="none"></path></g><g transform="translate(361.7274482688121 268.60392641089857) rotate(0 -0.6316262218457496 -58.27475776880044)"><path d="M15.44015146303526 -0.591396841604563 C9.805776158750568 0.21964965183528762, 4.492924500600115 -0.6579233912596316, -1.713599526230246 -0.5627306601963937 M14.150621549697359 -0.4898435754350596 C10.438433054989751 -0.020529513207244166, 5.333954261602914 0.46323583645304633, -0.27827104381285606 0.6784441096242517" stroke="#000000" stroke-width="1" fill="none"></path></g><g transform="translate(361.7274482688121 268.60392641089857) rotate(0 -0.6316262218457496 -58.27475776880044)"><path d="M11.398533316299025 -90.36507276339343 C7.36385059861608 -99.37810230251381, 3.47862354350265 -110.66583650583128, -2.500447782894444 -118.70898470995942 M9.679160098515156 -90.22966840850076 C7.52805486903326 -98.69973511192757, 3.591261987810231 -107.1304149413265, -0.5866764730045908 -117.05408501686523" stroke="#000000" stroke-width="1" fill="none"></path></g><g transform="translate(361.7274482688121 268.60392641089857) rotate(0 -0.6316262218457496 -58.27475776880044)"><path d="M-9.115123557591724 -89.80840046651305 C-5.83163985310525 -98.96680409945671, -2.4041774027761003 -110.4529803303655, -2.500447782894444 -118.70898470995942 M-10.834496775375593 -89.67299611162038 C-6.4273760276970755 -98.36706441223397, -3.804556270510836 -106.9757502722747, -0.5866764730045908 -117.05408501686523" stroke="#000000" stroke-width="1" fill="none"></path></g></g><g><g transform="translate(113.87978283350566 170) rotate(0 1.0190804716142168 51.07917144769806)"><path d="M0.37577653191983695 -0.09102769754827023 C0.7624955403351008 17.066278221576166, 2.7535870505090654 85.22076865270114, 2.92424046139015 102.27561599943789 M-0.8860795181617142 -1.1844211841002106 C-0.6750493403605402 16.157342162287488, 1.4221262769739926 85.96776934120186, 2.187251112673116 103.34276407949629" stroke="#000000" stroke-width="1" fill="none"></path></g><g transform="translate(113.87978283350566 170) rotate(0 1.0190804716142168 51.07917144769806)"><path d="M-9.22307616687188 76.2055254347126 C-6.774952455839619 83.37100251541347, -2.893352930304834 95.3788893236662, 2.6854477201287272 103.79120256930592 M-9.622246529262458 75.85296247913195 C-6.827735119401822 81.85620817005083, -4.093968531263132 88.23176500484534, 1.4783696273971918 102.92458832535895" stroke="#000000" stroke-width="1" fill="none"></path></g><g transform="translate(113.87978283350566 170) rotate(0 1.0190804716142168 51.07917144769806)"><path d="M11.285100185078662 75.47429010792908 C6.544579998036397 82.96015957541337, 3.2416075064603245 95.22421800890336, 2.6854477201287272 103.79120256930592 M10.885929822688084 75.12172715234843 C8.982717382975038 81.44190992699727, 7.025913758990398 87.98471277055437, 1.4783696273971918 102.92458832535895" stroke="#000000" stroke-width="1" fill="none"></path></g></g><g transform="translate(731.5 10) rotate(0 137.5 104)"><path d="M51.091134916990995 0.17357807233929634 M50.86002593114972 -3.6882774718105793 C118.37313851201904 -0.3637434055097404, 174.7173553714528 -2.9848413278348747, 224.2695862539112 -3.801937449723482 M51.15465874038637 -1.4679428096860647 C90.02836644453927 -3.4141886197589333, 124.32706766370681 -2.9256544672511513, 223.16767776571209 1.9734286908060312 M222.99999999999994 0 C259.3964726241926 3.463375736027956, 271.61015380546445 18.067676910509668, 273.75266779586667 50.02717428281903 M222.49881387874478 -0.7552591077983379 C256.8387524653847 0.5535899182781581, 271.3389452049508 17.35732151673486, 273.7207485863938 51.65501381959766 M274.60606508329505 52.36763573810458 C278.7963538333773 79.82856446951628, 277.8289488717913 106.56050073876978, 278.01476328447455 153.6385048739612 M276.118738239631 50.6135652307421 C273.2861601132899 83.41569313518703, 273.6077007669955 116.40339271016418, 276.78044272027904 155.75055059231818 M274.99999999999994 156 C274.0333845727145 187.17337617153922, 257.0411763700346 206.9578912742436, 220.65528358146543 210.19376092031598 M275.36969901248807 153.74103181436658 C273.72927768323564 188.02971413737782, 260.53112536563225 211.4858577689156, 219.94871798250819 211.56573365535587 M222.97119908407325 209.75098730251193 C181.63629415100436 208.83401235209777, 140.41130209024993 209.59540649520233, 49.21155469492078 206.9566785208881 M221.86396855674678 206.62620272673666 C182.4133526575751 205.25731135791168, 138.5022322265431 205.1113621730171, 50.42606747709215 208.70318671502173 M52 208 C13.889336438228689 210.82587640359998, -0.12012182548642159 192.26602861161032, -0.9481583721935749 155.44721584394574 M54.8004443757236 204.2504605539143 C13.421210524377727 205.11988890375943, 4.557273370958864 193.60955622202405, -2.3213923027738925 156.07215280141682 M1.6224201209843159 159.84166003391147 C0.15316955029964463 127.94055867791175, 1.9812510389089586 94.27384376600384, 0.49570267274975777 52.06371630355716 M-0.3103339020162821 155.87221577204764 C0.695729107633233 115.03267491422594, -0.8220017840713263 75.95561002381146, 1.16949344240129 52.61795815266669 M0 52 C1.115044366568327 17.639951953043543, 18.12072536473473 0.2007477767765522, 54.915974747389555 -2.982968758791685 M2.2959327809512615 54.97126929834485 C-3.9308754434809083 20.04480106638124, 14.192275288638971 3.1871245583519334, 54.46134546492249 2.8069372734054925" stroke="#000000" stroke-width="1" fill="none"></path></g><g transform="translate(758.5 31.5) rotate(0 101.5 37.5)"><text x="101.5" y="18" font-family="Virgil, Segoe UI Emoji" font-size="20px" fill="#000000" text-anchor="middle" style="white-space: pre;" direction="ltr">OSC app </text><text x="101.5" y="43" font-family="Virgil, Segoe UI Emoji" font-size="20px" fill="#000000" text-anchor="middle" style="white-space: pre;" direction="ltr">sends + receives</text><text x="101.5" y="68" font-family="Virgil, Segoe UI Emoji" font-size="20px" fill="#000000" text-anchor="middle" style="white-space: pre;" direction="ltr">on different sockets</text></g><g transform="translate(751.5 128) rotate(0 62.5 36.00000000000003)"><path d="M19.393564945086855 0.7734642866998911 M19.579079115763324 -0.2720029894262552 C42.37459304770457 -0.7619102131109684, 71.0965844118968 -1.080326987383887, 105.33868219889703 -1.4715770427137613 M18.466316821984964 -0.42068596463650465 C50.463142711203574 0.4768156619276852, 84.87452224269512 1.6399488957133146, 106.68816694896671 -0.49320642929524183 M107.00000000000003 0 C117.3050769027323 0.36717178858816624, 124.74940693937246 5.622370446100836, 125.86490297876303 19.731687868013996 M106.44380373321476 -0.1499939914792776 C117.16947260247548 0.011994091700762599, 124.36680048750718 7.8263324568979495, 124.58604289935906 18.276794959139096 M126.07235702313487 17.745863741263765 C125.55320039983843 27.577542475611004, 126.47192749973391 38.087510623410395, 125.13438549079005 52.922025924548564 M124.7036265758798 17.758444291539508 C125.06576978586618 31.10701878871772, 126.09159424327318 43.48352926764642, 124.41382089536641 54.54844023007905 M125.00000000000004 54.00000000000006 C124.68725485168402 65.47894563712187, 119.1848495062441 70.87051590718336, 106.51669228635731 70.25335475243635 M123.67335564456884 55.550318980589566 C126.43222934948285 67.74292888445787, 117.92018166230996 70.6890213618987, 106.36463884161788 70.68152373535565 M107.95403977669778 72.45406097732491 C82.4702947699465 73.2243527236861, 52.59149399232121 71.86793393525302, 16.91444089449944 70.97641838155694 M107.71591115277263 71.74725548643626 C85.89153797561305 71.06294110738679, 64.45693816728891 71.74025357090875, 17.762960406951624 71.8618039609865 M18.000000000000018 72.00000000000007 C5.9399390872567945 72.7996809724719, 1.4002221878618002 64.12523027695723, -1.7219984475523233 55.412938201800046 M16.990698998793977 72.03137078322477 C8.278636685479437 73.47144477767877, -0.4891366715542971 66.68372740251951, -1.9560614044778046 52.559944451879765 M0.38574847020208836 54.46440512500709 C1.1537714036181568 42.56882160454993, 0.10183352548629032 34.91915445066992, 1.824844503775239 17.069041734561342 M-0.13623374421149492 53.860933166928646 C-0.8392390877008438 40.78257221411918, 0.6406068235635758 26.540130641497694, 0.7289936868473887 17.254257810302096 M0 18.000000000000018 C0.3936960157006979 6.100373888388281, 7.147966390475636 1.4856346491724253, 18.55752218328418 0.1533093098551035 M1.070150202140212 19.22040751017632 C-1.570529022347182 7.593562279175972, 7.644778103102004 -0.9161851634271443, 16.034562278259564 1.3557338665239511" stroke="#000000" stroke-width="1" fill="none"></path></g><g transform="translate(890.5 143.5) rotate(0 50.5 23.50000000000003)"><path d="M12.04086703620852 0.4427048210054636 M12.012933755293497 0.0753017719835043 C40.8839425903279 0.10161513208877243, 71.55014223651952 -0.530688284640201, 90.64769896306086 0.32664591632783413 M11.820676180534074 -0.39008944015949965 C33.152113921707475 -0.25824045340996127, 55.398807209450695 -1.1289140204666173, 89.79609209578473 0.4115556301549077 M89.24999999999989 0 C98.80418499869594 -0.7692612763494253, 99.98892933689048 2.524687711770339, 101.4036464150994 12.166103268042216 M89.03386819921423 -0.8981557246297598 C96.26405200011396 -1.329235826898366, 102.85739978896444 3.8618797739657293, 102.29376885639493 13.666467044781903 M101.2327093128114 12.861238723620781 C101.40134078302876 19.529283628100544, 100.47779607811466 26.543037379626206, 99.46909424103787 36.898109143599896 M100.73077836912115 12.152655852027246 C101.73195176350409 17.82037742915565, 100.15701576101118 24.989454177487666, 100.36623037140807 34.556258243508665 M100.9999999999999 35.25000000000003 C101.3737853821366 42.077514454101554, 97.20021393460522 48.94350400008265, 90.03334481082845 47.83736350573603 M99.88158798776557 36.38375743664804 C99.97186114834612 43.19282515350111, 96.96298465079929 47.44874540371824, 88.79600810157123 46.75707095069814 M89.42121198214579 47.57359016500417 C65.80662998813196 46.219671804760615, 42.78289310215037 49.267872233246486, 11.39422639645637 45.45238334499303 M89.39717862289388 47.45930571574721 C69.03497597412198 46.93335654276893, 50.81715484848241 46.3679999007611, 11.709146204404542 46.946432811208105 M11.750000000000009 47.000000000000036 C3.7531010365734527 47.523469770327246, 0.4092834647744894 43.605461462711325, 0.5164596494287252 33.273737573996215 M11.396933203563103 48.112669194117224 C2.8168487175988686 46.287780548166516, 0.8548405443318186 45.09124877455958, 1.9028696154244242 35.86920615239072 M0.22443785704672337 37.08979750238362 C1.0468968770513314 27.950557812070493, -1.3587874152651054 17.98246642192827, -1.446533476933837 10.132534926757225 M0.8132851449772716 35.33723319787535 C0.8747375742113218 28.245395730482436, 0.827919705263339 22.02149058273064, 0.7010602978989482 12.631639880128214 M0 11.750000000000009 C1.2049900349229574 1.9906424327443073, 4.800871000314755 1.4273895267397165, 11.027307337149987 -1.0975284334272146 M1.5198452528566122 12.20020064152778 C-1.28307350827381 3.075348781577004, 6.061035503416014 1.628118727635592, 11.330442265141764 1.3285806576721368" stroke="#000000" stroke-width="1" fill="none"></path></g><g transform="translate(903.5 157.5) rotate(0 37.5 9.5)"><text x="0" y="15" font-family="Cascadia, Segoe UI Emoji" font-size="16px" fill="#000000" text-anchor="start" style="white-space: pre;" direction="ltr">udp:4001</text></g><g><g transform="translate(814.1551649837411 207.6595744680851) rotate(0 -0.8886055991464445 38.255317318986414)"><path d="M0.2701203849166631 -0.21889968775212765 C-0.11648551626258269 12.413130107890586, -0.9856278485682197 63.58554985856522, -1.4632016910316452 76.70408592557024 M-1.047205142341554 -1.3794259691610933 C-1.6061176872452414 11.318604603964603, -1.6232876219850367 64.87062725538271, -2.047331583209525 77.8900606071339" stroke="#000000" stroke-width="1" fill="none"></path></g><g transform="translate(814.1551649837411 207.6595744680851) rotate(0 -0.8886055991464445 38.255317318986414)"><path d="M-12.26203879854352 50.70844685370572 C-9.139640856495614 59.32286664682662, -2.5013135098399033 71.99366302185442, -2.117677933059822 78.20140698344866 M-12.5132325240475 49.3361230510334 C-9.015130920590197 58.53154029599955, -4.3925035765581635 69.00980158328376, -2.656218170643042 78.3255986038358" stroke="#000000" stroke-width="1" fill="none"></path></g><g transform="translate(814.1551649837411 207.6595744680851) rotate(0 -0.8886055991464445 38.255317318986414)"><path d="M8.257003093357872 51.00664515054066 C3.7569891167444105 59.556511627437736, 2.7751706210680247 72.11656625712536, -2.117677933059822 78.20140698344866 M8.00580936785389 49.63432134786834 C4.3213736073515125 58.66185422133838, 1.7613810357449742 69.03573222226157, -2.656218170643042 78.3255986038358" stroke="#000000" stroke-width="1" fill="none"></path></g></g><g><g transform="translate(934.7350962433964 289.03076498769224) rotate(0 -0.11207836139419669 -47.91291192043573)"><path d="M-0.26490375660359855 0.0307649876922369 C-0.3020644409254221 -15.96550169568509, -0.8674040008559966 -79.92289424296469, -0.7877727692842654 -95.85658882856369 M1.7968830418400468 -0.9986873391084373 C1.6035849047966275 -16.785934346634892, -1.6694439934604013 -78.11537725018337, -2.0210397646285765 -94.22772109379991" stroke="#000000" stroke-width="1" fill="none"></path></g><g transform="translate(934.7350962433964 289.03076498769224) rotate(0 -0.11207836139419669 -47.91291192043573)"><path d="M-15.226144943144078 -0.5530591694674827 C-11.253064417730746 0.7067755490723623, -7.102668900652252 0.4676972038125141, -0.002808823529630855 0.6152794011868539 M-15.502346460698078 0.4234869813975508 C-10.591833836434347 -0.09540125210269944, -5.9340013769917626 -0.41556788822816665, 0.01781589486636237 0.19106109417043626" stroke="#000000" stroke-width="1" fill="none"></path></g><g transform="translate(934.7350962433964 289.03076498769224) rotate(0 -0.11207836139419669 -47.91291192043573)"><path d="M14.773249899167475 -0.743608625229506 C11.158697302344917 0.49819766150828376, 7.721267541921162 0.30731548769273825, -0.002808823529630855 0.6152794011868539 M14.497048381613475 0.23293752563552747 C10.215963533090367 -0.14001146522850266, 5.68347378545408 -0.4018032273259583, 0.01781589486636237 0.19106109417043626" stroke="#000000" stroke-width="1" fill="none"></path></g><g transform="translate(934.7350962433964 289.03076498769224) rotate(0 -0.11207836139419669 -47.91291192043573)"><path d="M9.378315073007439 -67.3623187408967 C6.719029319345737 -72.74376735785005, 4.324040351029868 -80.0545657494999, -1.6715798538632862 -93.44836854247376 M9.010046382935439 -66.06025720640999 C6.139036256594817 -75.12930407439599, 2.7461109260999708 -84.02488864137727, -1.6440802293352954 -94.01399295182898" stroke="#000000" stroke-width="1" fill="none"></path></g><g transform="translate(934.7350962433964 289.03076498769224) rotate(0 -0.11207836139419669 -47.91291192043573)"><path d="M-11.127400830167392 -66.56506239308735 C-8.600926287112237 -72.10289613024884, -5.809350983673589 -79.61534665189515, -1.6715798538632862 -93.44836854247376 M-11.495669520239392 -65.26300085860063 C-8.079412692225311 -74.63614095352938, -5.19040676285355 -83.77596520456163, -1.6440802293352954 -94.01399295182898" stroke="#000000" stroke-width="1" fill="none"></path></g></g><g><g transform="translate(573 170) rotate(0 -0.17437345551678618 55.953496534544996)"><path d="M-1.0578602638095618 0.8272056486457584 C-1.42334587238729 19.371393993124368, -1.3717105474323035 92.26016489528119, -1.156134220585227 110.44503813050687 M0.5876243683509528 0.21588466884568325 C0.4822375264577567 18.98763964237645, 1.11452254621312 93.27782825352624, 0.9488498499803244 111.69110840024426" stroke="#000000" stroke-width="1" fill="none"></path></g><g transform="translate(573 170) rotate(0 -0.17437345551678618 55.953496534544996)"><path d="M-7.957555945300118 81.58236055661887 C-6.47962808532862 94.88200333732959, -3.3531451954054354 104.61124735006932, 0.252517121490091 111.01397144818678 M-9.077120589361147 83.07742708669007 C-5.562958896954387 94.37440476705675, -1.6388708162538155 106.3081766605393, 1.4504651386477052 111.16270766338333" stroke="#000000" stroke-width="1" fill="none"></path></g><g transform="translate(573 170) rotate(0 -0.17437345551678618 55.953496534544996)"><path d="M12.563644916163884 81.56453952162047 C6.112094147791494 94.69016362839935, 1.3092202000966218 104.42629365851553, 0.252517121490091 111.01397144818678 M11.444080272102855 83.05960605169167 C6.829771485182645 94.36766559333242, 2.6252197920046036 106.30849656561243, 1.4504651386477052 111.16270766338333" stroke="#000000" stroke-width="1" fill="none"></path></g></g><g><g transform="translate(613 279) rotate(0 -1.3861499819904566 -53.745780661329604)"><path d="M0.03082260154187688 -0.16220097206532946 C-0.35563531455894304 -17.972269074742993, -2.3057382120440404 -89.38923357787232, -2.80312256552279 -107.32936035059393 M-1.4121342619881034 -1.292960427738726 C-1.3745038728540142 -18.88644653612127, -0.6548696423197788 -88.36250441803286, -0.5128073760494591 -105.96484928343445" stroke="#000000" stroke-width="1" fill="none"></path></g><g transform="translate(613 279) rotate(0 -1.3861499819904566 -53.745780661329604)"><path d="M-15.166816008118486 -0.7745023098405561 C-11.481031127704583 -1.067978726304279, -8.179828949512688 0.32245341802400895, 0.4689215281046928 0.3110831416212023 M-15.17115295639219 -0.1233324297800773 C-9.861206767555947 0.1443842081082746, -4.174008804302646 -0.8549909618141367, 0.06684684581123301 0.26409415402449665" stroke="#000000" stroke-width="1" fill="none"></path></g><g transform="translate(613 279) rotate(0 -1.3861499819904566 -53.745780661329604)"><path d="M14.822958781038915 -1.557706048097079 C10.719275454303524 -1.640132016152933, 6.23407013160899 -0.046352447405582864, 0.4689215281046928 0.3110831416212023 M14.818621832765212 -0.9065361680366002 C9.342011892922843 -0.20017762265258976, 4.237985669843836 -0.9177324994077669, 0.06684684581123301 0.26409415402449665" stroke="#000000" stroke-width="1" fill="none"></path></g><g transform="translate(613 279) rotate(0 -1.3861499819904566 -53.745780661329604)"><path d="M9.216676324856975 -79.01905153046133 C6.452303569560777 -86.61069965104952, 3.06666111440995 -91.96484021012317, 0.0713245260342954 -105.33380379851907 M9.210893727158703 -78.15082502371402 C5.332968099621369 -87.62670653884786, 2.1235133383141616 -98.94888228689075, -0.4647750503569843 -105.39645578198135" stroke="#000000" stroke-width="1" fill="none"></path></g><g transform="translate(613 279) rotate(0 -1.3861499819904566 -53.745780661329604)"><path d="M-11.303657136157105 -79.20856943100156 C-8.740965303916962 -86.75628274412041, -6.798802548629929 -92.06121774520994, 0.0713245260342954 -105.33380379851907 M-11.309439733855376 -78.34034292425426 C-7.802401794653312 -87.85533449193458, -3.6280225554411407 -99.10931599155677, -0.4647750503569843 -105.39645578198135" stroke="#000000" stroke-width="1" fill="none"></path></g></g><g transform="translate(767 135.50000000000006) rotate(0 47 28.5)"><text x="47" y="15" font-family="Cascadia, Segoe UI Emoji" font-size="16px" fill="#000000" text-anchor="middle" style="white-space: pre;" direction="ltr">udp:4000</text><text x="47" y="34" font-family="Cascadia, Segoe UI Emoji" font-size="16px" fill="#000000" text-anchor="middle" style="white-space: pre;" direction="ltr">(or random</text><text x="47" y="53" font-family="Cascadia, Segoe UI Emoji" font-size="16px" fill="#000000" text-anchor="middle" style="white-space: pre;" direction="ltr">port)</text></g></svg>