<svg version="1.1" xmlns="http://www.w3.org/2000/svg" viewBox="0 0 996.5 310.03076498769224" width="996.5" height="310.03076498769224">
  <!-- svg-source:excalidraw -->
  
  <defs>
    <style>
      @font-face {
        font-family: "Virgil";
        src: url("https://excalidraw.com/Virgil.woff2");
      }
      @font-face {
        font-family: "Cascadia";
        src: url("https://excalidraw.com/Cascadia.woff2");
      }
    </style>
  </defs>
  <g transform="translate(10 25) rotate(0 107.99999999999997 87)"><path d="M46.64442699030042 0.6352487914264202 M45.933576475828886 -0.8299352638423443 C84.69935436295343 -3.9151446474529794, 121.93133021760727 -4.235714281890541, 170.7055556885897 -3.6213560812175274 M41.92972835339606 1.4173467811197042 C87.85041787391523 0.37060335474088824, 129.9967791626229 1.2775398214347664, 170.519070053473 -1.4694487992674112 M172.4999999999999 0 C205.0361724384128 -1.4202253706753254, 212.3011321313678 18.44911326095462, 216.47402112558473 44.97375310584903 M176.14621954038728 -1.3365659601986408 C197.86595526542504 -2.573382662795484, 214.64548419918853 15.067779035307467, 219.01821553912004 44.58228886816651 M216.8383590094744 39.92774634435773 C219.96737660342816 66.88772372482345, 218.61756850654248 97.27450850885361, 216.46434975787986 129.12716262415051 M216.17548581399012 42.37572712264955 C213.49442748306308 77.47632047245278, 214.783565502148 111.75093077477068, 217.77452828921366 128.7550486382097 M215.9999999999999 130.5 C213.78569059446443 160.57068539783359, 204.5548388250171 170.12492240592837, 175.4056300409137 175.6677049510181 M218.12945656850923 129.49801851436496 C216.41921431627114 155.39426072929055, 199.75966358389695 171.42085829470307, 174.05446294751007 174.2809392640367 M171.08278692886222 171.70784311369061 C146.48742083115494 174.7809664849378, 116.71225660722696 169.13283642569556, 45.44120718166232 174.01186602190137 M174.3267379645257 172.4682856258005 C142.78464619228606 173.67371305553243, 117.72481798510992 174.59977641431615, 43.390803480520844 174.9748082216829 M43.5 174 C15.962897349148989 173.51794077083468, 2.5189489610493183 159.68529881164432, -2.0646622888743877 131.18665374442935 M44.0589368827641 170.44226790592074 C14.69136603679508 174.6299621352926, 2.902232708595693 155.57507662270217, 0.821199705265462 127.83097286913544 M-1.4845069535076618 127.86484723165631 C-1.3928178724087774 111.73745708139613, -0.6750753101147711 92.0656829284504, -2.9839892275631428 43.355996299535036 M0.20135589875280857 130.15058869682252 C0.6614618738181888 102.56582327699289, -2.522506491374225 73.3945767628029, -1.8298582788556814 42.411021357402205 M0 43.5 C2.4847848899662495 13.55142356082797, 17.766704726964235 -0.8961247093975544, 47.32388632372022 -1.1832677014172077 M-0.8358473293483257 40.31356502696872 C-3.6942985573783513 10.61433678958565, 10.051170088909567 -3.068638246320188, 47.637029328010975 3.3426924178376796" stroke="#000000" stroke-width="1" fill="none"></path></g><g transform="translate(58.99999999999994 50) rotate(0 58 25)"><text x="58" y="18" font-family="Virgil, Segoe UI Emoji" font-size="20px" fill="#000000" text-anchor="middle" style="white-space: pre;" direction="ltr">OSC app #1</text><text x="58" y="43" font-family="Virgil, Segoe UI Emoji" font-size="20px" fill="#000000" text-anchor="middle" style="white-space: pre;" direction="ltr">Only sends</text></g><g transform="translate(260.99999999999994 32) rotate(0 93 80.5)"><path d="M41.680308748036616 2.433576475828886 M40.67237962409853 -3.3131651394069195 C67.91660143020562 -2.042761952346191, 100.69269503196702 2.6324951344076544, 146.60543824359775 -3.140543293207884 M39.53888627327978 1.8292974885553122 C77.39557432387954 -2.442539677331224, 118.7400191036053 -0.23621432513929896, 147.51808621920645 -0.7101126853376627 M145.75 0 C176.22955287372073 -1.3365659601986408, 188.62453525140882 14.357787421594061, 182.30113213136792 44.19911326095461 M142.5899611003697 -2.2377240546047688 C173.0451466600721 0.5910950073972341, 189.54710207190365 14.380779527562357, 184.64548419918864 40.81777903530746 M188.39398039504886 40.07764940336346 C187.97122462588362 55.83800214217043, 191.27390523749403 72.49464470641686, 185.8758747689426 121.10097162798044 M185.51307543553412 39.914348667487495 C186.34479790945537 58.12985030687413, 186.0230846406985 80.33345581283791, 184.89284529723227 121.28534269891676 M186 120.74999999999997 C188.12945656850934 146.58135184769827, 173.93504024421176 161.2442950122058, 148.8048388250172 157.12492240592834 M186.36453418806195 117.17979193851349 C182.65074361171574 147.22821446352947, 170.24036903188875 159.37020496819164, 144.00966358389707 158.42085829470304 M148.57729686424136 157.44693379476664 C122.08677096930333 162.11701220489104, 91.32587077626958 158.4442010543402, 42.767694961279624 164.6534759290516 M147.63641163147986 159.97586316429076 C122.07059680442326 159.91734701649284, 97.57725550336764 159.2858656670246, 40.98144867457449 160.7589703854173 M40.24999999999999 160.99999999999997 C13.975603549430765 157.44226790592072, 0.7140867002308369 145.26244017605978, 2.5189489610493183 120.93529881164429 M40.41640524938702 161.54779316112396 C9.040321123662093 160.82429362628605, 0.8776344558224078 145.8761503367995, 2.902232708595693 116.82507662270216 M-0.741538155823946 117.96168022230265 C-2.3966287385206675 101.75924124582669, 1.3847353447694328 85.13815068854018, 3.8482816331088543 40.65271179750561 M-1.6169840451329947 119.31315738521513 C-3.091280656503513 96.91740185269153, 0.6505207842122767 74.67112713987007, 1.2423924449831247 39.77571178041398 M0 40.24999999999999 C-0.8358473293483257 10.230231693635382, 17.01408347363273 2.9066890589892864, 43.51670472696423 -0.8961247093975544 M-3.2124335281550884 36.871162425726645 C2.9632118782028556 9.017239396708705, 12.262918525996305 4.223501701094209, 35.80117008890956 -3.068638246320188" stroke="#000000" stroke-width="1" fill="none"></path></g><g transform="translate(291.99999999999994 58.5) rotate(0 64 25)"><text x="64" y="18" font-family="Virgil, Segoe UI Emoji" font-size="20px" fill="#000000" text-anchor="middle" style="white-space: pre;" direction="ltr">OSC app #2</text><text x="64" y="43" font-family="Virgil, Segoe UI Emoji" font-size="20px" fill="#000000" text-anchor="middle" style="white-space: pre;" direction="ltr">Only receives</text></g><g transform="translate(482.99999999999994 20) rotate(0 106.5 87)"><path d="M40.50740449503064 0.42237962409853935 M45.02060354873538 1.0539010055363178 C71.71896805446593 -0.8590889620408437, 101.06175318397577 3.7743971896544077, 171.34472204372275 -1.4222274534404278 M43.73701056279242 0.7368765529245138 C94.59266039710488 1.1413928017392738, 140.29971442148081 3.8260621175542457, 171.32310977019358 -0.6682829800993204 M169.4999999999999 0 C195.33996110036958 -2.2377240546047688, 211.8221601732074 14.993720900267363, 215.6245352514087 44.4411207549274 M169.9015768058597 0.5139956586062908 C194.39190829601128 4.305356765724719, 208.87643829789002 17.253077454306187, 216.54710207190354 44.464112860895696 M216.76703036949027 41.822965670377016 C213.07786691362026 69.576109080296, 210.95344638997676 91.39814973752945, 212.3660588376223 129.52615087106824 M214.4528150204568 44.33385247550905 C213.43668490884815 68.67525940248743, 216.0712590241245 90.84229461010545, 214.06472828425456 129.99900925718248 M212.9999999999999 130.5 C213.36453418806184 155.92979193851352, 196.98666398599732 171.7572680823505, 170.8517069108783 174.24429501220584 M210.08760314062226 130.19120098277926 C210.3640195807441 163.28918210361152, 200.90932343211014 177.25139139387755, 167.1570356985553 172.37020496819167 M166.28474320098746 170.33905487135053 C145.40985350776455 177.6609515228495, 113.22088834457094 171.23836162474007, 39.59959961101413 177.77282326295972 M168.4676688555627 174.34332687221467 C138.88351073954246 174.9872287447378, 108.0635986104607 175.3209077651426, 43.77946844138205 172.22113395296037 M43.5 174 C14.666405249387026 174.547793161124, 2.523680616170168 156.0870231501758, 0.7140867002308369 128.17910684272647 M39.69448213651776 173.84721184894443 C11.46957431640476 172.32182717416435, -1.0804759124293923 158.64723112080247, 0.8776344558224078 128.79281700346618 M0.7973748557269573 132.58166079595685 C5.146316947098821 110.8673073139973, 0.5992127076350151 93.5631596731022, -0.19977282360196114 40.26603190973401 M1.9119431618601084 129.9083661492914 C2.8343691475875676 110.17597715472803, 3.2253290660865606 90.3524683939293, -0.41792366467416286 41.90678251348436 M0 43.5 C-3.2124335281550884 11.121162425726652, 10.63145225122571 -2.6683810837566853, 47.097416806966066 2.9066890589892864 M2.5767059810459614 39.674411069601774 C0.6506135186180471 11.465157211758196, 11.203768779896201 1.6227743694558736, 42.34625185932964 4.223501701094209" stroke="#000000" stroke-width="1" fill="none"></path></g><g transform="translate(508.99999999999994 41.5) rotate(0 81.5 37.5)"><text x="81.5" y="18" font-family="Virgil, Segoe UI Emoji" font-size="20px" fill="#000000" text-anchor="middle" style="white-space: pre;" direction="ltr">OSC app #3</text><text x="81.5" y="43" font-family="Virgil, Segoe UI Emoji" font-size="20px" fill="#000000" text-anchor="middle" style="white-space: pre;" direction="ltr">Sends + receives</text><text x="81.5" y="68" font-family="Virgil, Segoe UI Emoji" font-size="20px" fill="#000000" text-anchor="middle" style="white-space: pre;" direction="ltr">on same socket</text></g><g transform="translate(27.999999999999943 117) rotate(0 89 33)"><path d="M15.864564979448918 -1.083877021446824 M17.1698247846216 1.1121784690767527 C63.216039421502515 -1.7912151791620998, 106.93602687027307 -0.9127045251894741, 161.02548754774034 -1.1905830260366201 M161.5 0 C174.1038925703615 1.4982639197260141, 176.69766909442842 4.684857154265048, 179.36675018630922 14.898243332281712 M176.3712283615023 18.06423807702959 C177.04685448815115 25.292276927735664, 175.9038349907566 36.89361251611264, 178.45700141228735 49.4151725228876 M178 49.500000000000014 C178.7038622740656 60.63583142124118, 173.21853473223746 66.39005983434619, 162.7928523067385 65.27369857393207 M163.1580553110689 65.98792060650887 C114.72318478813395 68.1680942982901, 67.7929586591199 67.64230235521683, 17.67489857040346 67.5288919452578 M16.500000000000004 66.00000000000001 C5.13685995899141 64.86708047427238, 0.8415736015886068 60.09932228364052, 1.1430895384401083 47.57511004246773 M-1.6478506680577993 50.10040218196811 C-1.9642871660459786 41.99539045030252, 1.2945430832635612 32.92853141333909, -0.79988775216043 17.11831546388567 M0 16.500000000000004 C-0.27575561963021755 6.50048482976854, 3.9032177571207303 1.724353974685073, 15.205757224932317 1.6070047076791525" stroke="#000000" stroke-width="1.5" fill="none" stroke-dasharray="12 8"></path></g><g transform="translate(40.49999999999994 131.5) rotate(0 75 19)"><text x="75" y="15" font-family="Cascadia, Segoe UI Emoji" font-size="16px" fill="#000000" text-anchor="middle" style="white-space: pre;" direction="ltr">udp:4000</text><text x="75" y="34" font-family="Cascadia, Segoe UI Emoji" font-size="16px" fill="#000000" text-anchor="middle" style="white-space: pre;" direction="ltr">(or random port)</text></g><g transform="translate(287.99999999999994 128) rotate(0 65.99999999999994 22)"><path d="M9.697669094428424 -0.8151428457349539 M9.371228361502293 1.5642380770295858 C44.65453069936481 -0.8239338521845647, 77.82982560619705 0.4819074149243525, 121.45700141228724 -0.08482747711241245 M11.067915710620586 0.3592673661187291 C51.305717604234786 -0.09799238862469739, 91.90549135301255 0.5752927082590764, 121.82902765553433 -0.006039696745574474 M120.99999999999989 0 C130.01111599368343 0.24679776467382908, 133.17489857040334 5.195558611924451, 132.91559678874899 11.772589707747105 M122.14308953844 -1.9248899575322866 C129.30114297516013 -0.4607793738134205, 130.7188466523773 3.5134235759886616, 131.58238895284 9.697142545413229 M130.01372578181315 11.557213908061389 C133.09129245763634 16.772219085507103, 131.0188486743531 24.058396977186213, 130.7057572249322 34.60700470767917 M132.86217698734242 11.145356011576954 C132.59008816225443 17.057995054125794, 133.08877772433672 23.598515146784493, 131.92358380835492 32.31401310581715 M131.9999999999999 33.000000000000014 C131.1056263502686 40.02288715479276, 126.78584900063763 45.38377645052971, 122.45326179824758 42.40026321448387 M132.27304351888586 33.08370014466347 C130.82788179563346 41.01549036207921, 129.9352679247346 44.984661535453064, 121.33313550697628 43.18405725760387 M120.22309484519053 42.01127219758929 C91.87383400741956 43.28606227608399, 68.44659503549332 42.77191910715775, 10.734519446268681 44.988190835341825 M120.65663281362492 43.32254649419339 C83.36285089328877 42.61316625336187, 45.167979304678695 44.14279366591947, 10.370751502923671 43.54579762835057 M11.000000000000004 44.000000000000014 C5.450769946600001 44.44942566193642, -1.7738726679235697 41.72577999470136, -1.605363780632615 32.48494508303703 M9.79279089532793 42.80930837430061 C1.6457297011899463 43.551739473175274, 0.41610964285209784 38.161903446943825, 0.14321624385193 32.39130697650836 M0.11408164538443089 31.83510435186328 C1.3554613811708986 26.23691688720138, 0.7154287917353213 22.05096658989788, -1.8575908299535513 11.233047312125567 M0.21031639259308577 33.18258686084302 C-0.4857330240868033 25.346133199706685, -0.7794819690845908 17.621325237117713, 0.31237644236534834 11.72324941772968 M0 11.000000000000004 C-1.659345144405961 5.417201046521466, 3.7117166376362256 -1.3928513284772635, 10.945286458358172 -1.0773685928434134 M1.673523074015975 9.632305825129155 C2.2335359756834805 3.8817488839539402, 3.700377340583753 -1.1520593483932315, 11.039657530654225 0.7086622099392117" stroke="#000000" stroke-width="1" fill="none"></path></g><g transform="translate(312.99999999999994 139) rotate(0 42 9.5)"><text x="0" y="15" font-family="Cascadia, Segoe UI Emoji" font-size="16px" fill="#000000" text-anchor="start" style="white-space: pre;" direction="ltr">udp:57120</text></g><g transform="translate(535 132) rotate(0 56.99999999999994 21)"><path d="M11.883851433172826 -0.10746931470930576 M11.624828225001696 0.583249056711793 C38.036716486979245 -0.08148475185967907, 70.9755880100652 -0.1383779217395924, 102.64238483272482 -1.941739534959197 M11.151315164752308 -0.36568224150687456 C30.60524235004557 -0.2626658100914203, 50.4298484370112 -0.5521012861561023, 104.1845390619709 -0.6149395974352956 M103.49999999999989 0 C110.76915248669673 0.259685343131423, 113.27119829691935 3.5129905994981536, 114.50138440169383 8.826454168185595 M102.56922837533045 -1.277094418182969 C109.62544872863207 -1.2644201959483325, 111.97272137803945 5.1336393480189155, 115.58164087338362 11.686599106062207 M113.31053019128728 9.102863634005192 C112.6863072120304 18.39769810335711, 114.78267582288932 22.14623168464751, 115.53304666839529 33.1957301143557 M114.97330392617721 10.853820505551997 C113.08544302527781 15.313750305492437, 113.89862070028659 21.031068220362073, 114.2776745976879 31.130504998378466 M113.99999999999989 31.50000000000001 C115.6081716660409 38.55449146591128, 108.85755100287486 43.344459777697935, 103.71355345286418 42.43872321210803 M112.41792925633479 31.36313254199923 C115.27774983150873 39.962116763461395, 110.53828904433165 41.05045893834905, 104.96157507104787 43.4902545575984 M105.45487320981908 41.684711182490005 C79.9188198301009 41.51522146672943, 53.65706416461611 42.91002660007217, 9.844996040686969 40.303880000486984 M104.19152147788543 42.43325901310892 C81.995330474805 42.068408869830904, 60.70045802183443 42.846031956998644, 11.045481306500736 42.92814609687777 M10.500000000000004 42.000000000000014 C2.133935535326601 40.70222575031222, -0.8608066793531179 38.5007809456438, 1.0804847721010447 31.580434089526545 M12.197027171030644 43.19857282005252 C2.4223952184431266 41.73958946811037, 1.5232151548378168 39.21873917626218, 0.35488626761361974 31.81502397703008 M-1.1272013131529093 32.365412795916214 C-1.8635888821538538 26.10391504941509, 0.7252952926699072 18.865208211727445, 0.6587993558496237 11.403706217184666 M-0.6054091332480311 31.795728984288882 C-0.7011431279499083 26.146203675773002, -0.6878731372673064 21.658973708748825, 0.31876973528414965 9.833891901187602 M0 10.500000000000004 C-1.8356848116964102 5.158454602584244, 2.762121343985201 1.8593955095857382, 11.09192445315421 0.7852782066911459 M-1.1193567868322134 10.028542822226886 C0.259311647247523 4.132524285186083, 1.2797702173702428 -1.9118373210541901, 8.534157470893119 0.21527748154476267" stroke="#000000" stroke-width="1" fill="none"></path></g><g transform="translate(555 142) rotate(0 37.5 9.5)"><text x="0" y="15" font-family="Cascadia, Segoe UI Emoji" font-size="16px" fill="#000000" text-anchor="start" style="white-space: pre;" direction="ltr">udp:4567</text></g><g><g transform="translate(361.7274482688121 277.60392641089857) rotate(0 -0.6316262218457496 -58.27475776880044)"><path d="M-0.3104347553104162 0.6039264108985662 C-0.9218430316823589 -18.403991774531693, -2.640188355931574 -95.92717634992049, -2.9907007125037124 -115.22814987897867 M1.7274482688121497 -0.124616168718785 C1.4502464632873366 -19.40198009234542, 0.19617941202453315 -97.61864934063823, -0.6295614216680043 -117.15344194849948" stroke="#000000" stroke-width="1" fill="none"></path></g><g transform="translate(361.7274482688121 277.60392641089857) rotate(0 -0.6316262218457496 -58.27475776880044)"><path d="M-14.551204946409676 0.12870087512984907 C-9.487204339571807 0.7606339260911681, -4.108764892601087 -0.3736388877188954, -1.713599526230246 -0.5627306601963937 M-15.840734859747577 0.2302541412993524 C-9.964438699620391 0.40205754754783307, -5.478639086974864 0.6555586341067585, -0.27827104381285606 0.6784441096242517" stroke="#000000" stroke-width="1" fill="none"></path></g><g transform="translate(361.7274482688121 277.60392641089857) rotate(0 -0.6316262218457496 -58.27475776880044)"><path d="M15.44015146303526 -0.591396841604563 C9.805776158750568 0.21964965183528762, 4.492924500600115 -0.6579233912596316, -1.713599526230246 -0.5627306601963937 M14.150621549697359 -0.4898435754350596 C10.438433054989751 -0.020529513207244166, 5.333954261602914 0.46323583645304633, -0.27827104381285606 0.6784441096242517" stroke="#000000" stroke-width="1" fill="none"></path></g><g transform="translate(361.7274482688121 277.60392641089857) rotate(0 -0.6316262218457496 -58.27475776880044)"><path d="M11.398533316299025 -90.36507276339343 C7.36385059861608 -99.37810230251381, 3.47862354350265 -110.66583650583128, -2.500447782894444 -118.70898470995942 M9.679160098515156 -90.22966840850076 C7.52805486903326 -98.69973511192757, 3.591261987810231 -107.1304149413265, -0.5866764730045908 -117.05408501686523" stroke="#000000" stroke-width="1" fill="none"></path></g><g transform="translate(361.7274482688121 277.60392641089857) rotate(0 -0.6316262218457496 -58.27475776880044)"><path d="M-9.115123557591724 -89.80840046651305 C-5.83163985310525 -98.96680409945671, -2.4041774027761003 -110.4529803303655, -2.500447782894444 -118.70898470995942 M-10.834496775375593 -89.67299611162038 C-6.4273760276970755 -98.36706441223397, -3.804556270510836 -106.9757502722747, -0.5866764730045908 -117.05408501686523" stroke="#000000" stroke-width="1" fill="none"></path></g></g><g><g transform="translate(113.87978283350566 179) rotate(0 1.0190804716142168 51.07917144769806)"><path d="M0.37577653191983695 -0.09102769754827023 C0.7624955403351008 17.066278221576166, 2.7535870505090654 85.22076865270114, 2.92424046139015 102.27561599943789 M-0.8860795181617142 -1.1844211841002106 C-0.6750493403605402 16.157342162287488, 1.4221262769739926 85.96776934120186, 2.187251112673116 103.34276407949629" stroke="#000000" stroke-width="1" fill="none"></path></g><g transform="translate(113.87978283350566 179) rotate(0 1.0190804716142168 51.07917144769806)"><path d="M-9.22307616687188 76.2055254347126 C-6.774952455839619 83.37100251541347, -2.893352930304834 95.3788893236662, 2.6854477201287272 103.79120256930592 M-9.622246529262458 75.85296247913195 C-6.827735119401822 81.85620817005083, -4.093968531263132 88.23176500484534, 1.4783696273971918 102.92458832535895" stroke="#000000" stroke-width="1" fill="none"></path></g><g transform="translate(113.87978283350566 179) rotate(0 1.0190804716142168 51.07917144769806)"><path d="M11.285100185078662 75.47429010792908 C6.544579998036397 82.96015957541337, 3.2416075064603245 95.22421800890336, 2.6854477201287272 103.79120256930592 M10.885929822688084 75.12172715234843 C8.982717382975038 81.44190992699727, 7.025913758990398 87.98471277055437, 1.4783696273971918 102.92458832535895" stroke="#000000" stroke-width="1" fill="none"></path></g></g><g transform="translate(731.5 10) rotate(0 127.5 100)"><path d="M49.091134916990995 0.17357807233929634 M48.86002593114972 -3.6882774718105793 C110.4582865559496 -0.3806100790388882, 160.88765145931393 -3.0017080013640225, 206.26958625391123 -3.801937449723482 M49.15465874038637 -1.4679428096860647 C84.55742068542168 -3.173457233514636, 115.38517614547162 -2.684923081006854, 205.1676777657121 1.9734286908060312 M204.99999999999997 0 C240.06313929085928 3.463375736027956, 251.61015380546448 17.401010243842997, 253.7526677958667 48.02717428281903 M204.4988138787448 -0.7552591077983379 C237.50541913205134 0.5535899182781581, 251.33894520495085 16.69065485006819, 253.72074858639385 49.65501381959766 M254.60606508329508 50.36763573810458 C258.7328292261809 76.73868612386286, 257.7654242645949 102.38074404746294, 258.0147632844746 147.6385048739612 M256.11873823963106 48.6135652307421 C253.32927907630798 80.18881603702903, 253.65081973001358 111.94963851384819, 256.7804427202791 149.75055059231818 M254.99999999999997 150 C254.03338457271454 179.8400428382059, 237.70784303670126 198.9578912742436, 202.65528358146545 202.19376092031598 M255.3696990124881 147.74103181436658 C253.72927768323567 180.6963808040445, 241.19779203229893 203.4858577689156, 201.9487179825082 203.56573365535587 M204.97119908407328 201.75098730251193 C167.6851161769591 200.8409465839155, 130.50894614215937 201.60234072702005, 47.21155469492078 198.9566785208881 M203.8639685567468 198.62620272673666 C168.34490537317467 197.46663997685536, 128.3653376577422 197.3206907919608, 48.42606747709215 200.70318671502173 M50 200 C13.222669771562018 202.82587640359998, -0.12012182548642159 184.932695278277, -0.9481583721935749 149.44721584394574 M52.8004443757236 196.2504605539143 C12.754543857711056 197.11988890375943, 4.557273370958864 186.27622288869074, -2.3213923027738925 150.07215280141682 M1.6224201209843159 153.84166003391147 C0.17695137299597263 123.05549143068492, 2.0050328616052866 90.50370927155018, 0.49570267274975777 50.06371630355716 M-0.3103339020162821 149.87221577204764 C0.658490777015686 110.59764381498098, -0.8592401146888733 73.08554782532156, 1.16949344240129 50.61795815266669 M0 50 C1.115044366568327 16.97328528637687, 17.45405869806806 0.2007477767765522, 52.915974747389555 -2.982968758791685 M2.2959327809512615 52.97126929834485 C-3.9308754434809083 19.37813439971457, 13.5256086219723 3.1871245583519334, 52.46134546492249 2.8069372734054925" stroke="#000000" stroke-width="1" fill="none"></path></g><g transform="translate(750.5 31.5) rotate(0 101.5 37.5)"><text x="101.5" y="18" font-family="Virgil, Segoe UI Emoji" font-size="20px" fill="#000000" text-anchor="middle" style="white-space: pre;" direction="ltr">OSC app #4</text><text x="101.5" y="43" font-family="Virgil, Segoe UI Emoji" font-size="20px" fill="#000000" text-anchor="middle" style="white-space: pre;" direction="ltr">Sends + receives</text><text x="101.5" y="68" font-family="Virgil, Segoe UI Emoji" font-size="20px" fill="#000000" text-anchor="middle" style="white-space: pre;" direction="ltr">on different sockets</text></g><g transform="translate(751.5 137) rotate(0 50.5 23.50000000000003)"><path d="M13.143564945086846 0.7734642866998911 M13.329079115763315 -0.2720029894262552 C32.735207655699895 -0.8679481904255238, 58.06781362788745 -1.1863649646984427, 87.58868219889689 -1.4715770427137613 M12.216316821984956 -0.42068596463650465 C39.89801429188806 0.3924089503707354, 69.99426540406412 1.5555421841563648, 88.93816694896657 -0.49320642929524183 M89.24999999999989 0 C95.38841023606548 0.36717178858816624, 100.74940693937232 3.5390371127675007, 101.86490297876288 13.481687868013987 M88.69380373321462 -0.1499939914792776 C95.25280593580867 0.011994091700762599, 100.36680048750704 5.742999123564614, 100.58604289935892 12.026794959139089 M102.07235702313473 11.495863741263756 C101.56551086598532 17.635136540466934, 102.4842379658808 24.452698753122263, 101.13438549078991 34.172025924548535 M100.70362657587965 11.508444291539499 C100.9958486458891 20.41114136311227, 102.0216731032961 28.341774416435534, 100.41382089536627 35.798440230079024 M100.9999999999999 35.25000000000003 C100.68725485168387 42.56227897045516, 97.26818283957729 45.870515907183325, 88.76669228635717 45.253354752436316 M99.6733556445687 36.80031898058954 C102.43222934948271 44.82626221779116, 96.00351499564314 45.68902136189867, 88.61463884161773 45.68152373535562 M90.20403977669764 47.45406097732488 C68.14537487435146 48.17401183873884, 41.69165420113127 46.81759305030577, 10.66444089449943 45.976418381556904 M89.96591115277249 46.747255486436224 C70.83926325128405 46.1419344505994, 52.10238871863106 46.81924691412136, 11.512960406951615 46.86180396098647 M11.750000000000009 47.000000000000036 C3.856605753923459 47.79968097247187, 1.4002221878618002 41.20856361029052, -1.7219984475523233 36.66293820180002 M10.740698998793968 47.03137078322474 C6.195303352146102 48.471444777678734, -0.4891366715542971 43.7670607358528, -1.9560614044778046 33.80994445187974 M0.38574847020208836 35.71440512500706 C1.2044720323989166 27.136999330436833, 0.15253415426705025 22.805509902443752, 1.824844503775239 10.819041734561333 M-0.13623374421149492 35.11093316692862 C-0.8586349565768614 26.853552845167016, 0.6212109546875582 17.432091903593403, 0.7289936868473887 11.004257810302088 M0 11.750000000000009 C0.3936960157006979 4.017040555054946, 5.0646330571423 1.4856346491724253, 12.307522183284172 0.1533093098551035 M1.070150202140212 12.97040751017631 C-1.570529022347182 5.510228945842636, 5.561444769768668 -0.9161851634271443, 9.784562278259555 1.3557338665239511" stroke="#000000" stroke-width="1" fill="none"></path></g><g transform="translate(764.5 151) rotate(0 37.5 9.5)"><text x="0" y="15" font-family="Cascadia, Segoe UI Emoji" font-size="16px" fill="#000000" text-anchor="start" style="white-space: pre;" direction="ltr">udp:4000</text></g><g transform="translate(864.5 137.5) rotate(0 50.5 23.50000000000003)"><path d="M12.04086703620852 0.4427048210054636 M12.012933755293497 0.0753017719835043 C40.8839425903279 0.10161513208877243, 71.55014223651952 -0.530688284640201, 90.64769896306086 0.32664591632783413 M11.820676180534074 -0.39008944015949965 C33.152113921707475 -0.25824045340996127, 55.398807209450695 -1.1289140204666173, 89.79609209578473 0.4115556301549077 M89.24999999999989 0 C98.80418499869594 -0.7692612763494253, 99.98892933689048 2.524687711770339, 101.4036464150994 12.166103268042216 M89.03386819921423 -0.8981557246297598 C96.26405200011396 -1.329235826898366, 102.85739978896444 3.8618797739657293, 102.29376885639493 13.666467044781903 M101.2327093128114 12.861238723620781 C101.40134078302876 19.529283628100544, 100.47779607811466 26.543037379626206, 99.46909424103787 36.898109143599896 M100.73077836912115 12.152655852027246 C101.73195176350409 17.82037742915565, 100.15701576101118 24.989454177487666, 100.36623037140807 34.556258243508665 M100.9999999999999 35.25000000000003 C101.3737853821366 42.077514454101554, 97.20021393460522 48.94350400008265, 90.03334481082845 47.83736350573603 M99.88158798776557 36.38375743664804 C99.97186114834612 43.19282515350111, 96.96298465079929 47.44874540371824, 88.79600810157123 46.75707095069814 M89.42121198214579 47.57359016500417 C65.80662998813196 46.219671804760615, 42.78289310215037 49.267872233246486, 11.39422639645637 45.45238334499303 M89.39717862289388 47.45930571574721 C69.03497597412198 46.93335654276893, 50.81715484848241 46.3679999007611, 11.709146204404542 46.946432811208105 M11.750000000000009 47.000000000000036 C3.7531010365734527 47.523469770327246, 0.4092834647744894 43.605461462711325, 0.5164596494287252 33.273737573996215 M11.396933203563103 48.112669194117224 C2.8168487175988686 46.287780548166516, 0.8548405443318186 45.09124877455958, 1.9028696154244242 35.86920615239072 M0.22443785704672337 37.08979750238362 C1.0468968770513314 27.950557812070493, -1.3587874152651054 17.98246642192827, -1.446533476933837 10.132534926757225 M0.8132851449772716 35.33723319787535 C0.8747375742113218 28.245395730482436, 0.827919705263339 22.02149058273064, 0.7010602978989482 12.631639880128214 M0 11.750000000000009 C1.2049900349229574 1.9906424327443073, 4.800871000314755 1.4273895267397165, 11.027307337149987 -1.0975284334272146 M1.5198452528566122 12.20020064152778 C-1.28307350827381 3.075348781577004, 6.061035503416014 1.628118727635592, 11.330442265141764 1.3285806576721368" stroke="#000000" stroke-width="1" fill="none"></path></g><g transform="translate(877.5 151.5) rotate(0 37.5 9.5)"><text x="0" y="15" font-family="Cascadia, Segoe UI Emoji" font-size="16px" fill="#000000" text-anchor="start" style="white-space: pre;" direction="ltr">udp:4001</text></g><g><g transform="translate(806 189) rotate(0 0.32298368735246186 51.068559527955955)"><path d="M0.2701203849166631 -0.21889968775212765 C0.4095768517504136 16.684210844213766, 1.6446839914967617 84.94095354018113, 1.6931725170463323 102.33057034350932 M-1.047205142341554 -1.3794259691610933 C-1.080055319232245 15.589685340287783, 1.0070242180799445 86.22603093699863, 1.1090426248684526 103.51654502507299" stroke="#000000" stroke-width="1" fill="none"></path></g><g transform="translate(806 189) rotate(0 0.32298368735246186 51.068559527955955)"><path d="M-10.052669205523882 76.68205935893852 C-6.581220560371083 85.16543466563314, 0.4087953942675515 97.70731826466081, 1.0386962750181556 103.82789140138775 M-10.303862931027863 75.30973555626619 C-6.474169527836128 84.38657254269943, -1.520046481219448 94.74332283906075, 0.5001560374349356 103.95208302177488" stroke="#000000" stroke-width="1" fill="none"></path></g><g transform="translate(806 189) rotate(0 0.32298368735246186 51.068559527955955)"><path d="M10.46480004497579 76.29032227792615 C6.319663777525038 84.96536166835362, 5.6901179208454 97.65272446201864, 1.0386962750181556 103.82789140138775 M10.21360631947181 74.91799847525382 C6.861121858255501 84.06846545894038, 4.633175486937726 94.56234197077495, 0.5001560374349356 103.95208302177488" stroke="#000000" stroke-width="1" fill="none"></path></g></g><g><g transform="translate(915 300) rotate(0 -0.48983153076835606 -56.397529426589614)"><path d="M-0.26490375660359855 0.0307649876922369 C-0.42798216405014194 -18.793707531069717, -1.4969926164795955 -94.06392341988781, -1.5432791080325843 -112.82582384087145 M1.7968830418400468 -0.9986873391084373 C1.4776671816719076 -19.61414018201952, -2.299032609084 -92.2564064271065, -2.7765461033768952 -111.19695610610768" stroke="#000000" stroke-width="1" fill="none"></path></g><g transform="translate(915 300) rotate(0 -0.48983153076835606 -56.397529426589614)"><path d="M-15.225351475921952 -0.467004967848642 C-11.252558423648273 0.7710620851511747, -7.10236360030632 0.5102178259550305, -0.002808823529630855 0.6152794011868539 M-15.501552993475952 0.5095411830163915 C-10.590707524266746 -0.035707460913818725, -5.933118143708599 -0.3822368234978419, 0.01781589486636237 0.19106109417043626" stroke="#000000" stroke-width="1" fill="none"></path></g><g transform="translate(915 300) rotate(0 -0.48983153076835606 -56.397529426589614)"><path d="M14.772456431945349 -0.8296628268483467 C11.158191308262444 0.4339111254294714, 7.72096224157523 0.26479486555022186, -0.002808823529630855 0.6152794011868539 M14.496254914391349 0.14688332401668677 C10.214837220922766 -0.19970525641738338, 5.682590552170916 -0.43513429205628307, 0.01781589486636237 0.19106109417043626" stroke="#000000" stroke-width="1" fill="none"></path></g><g transform="translate(915 300) rotate(0 -0.48983153076835606 -56.397529426589614)"><path d="M8.646722992239209 -84.34133791712311 C5.981398409474869 -89.7203645914194, 3.580360745438708 -97.02868824893908, -2.427086192611605 -110.41760355478152 M8.278454302167209 -83.0392763826364 C5.400052555629326 -92.10525606689008, 1.999801086146161 -100.9978432527771, -2.399586568083614 -110.98322796413674" stroke="#000000" stroke-width="1" fill="none"></path></g><g transform="translate(915 300) rotate(0 -0.48983153076835606 -56.397529426589614)"><path d="M-11.8582986451407 -83.5264207210711 C-9.338056343329567 -89.06630105265435, -6.552705338071717 -96.5807438446358, -2.427086192611605 -110.41760355478152 M-12.2265673352127 -82.2243591865844 C-8.817796619422168 -91.59984047664001, -5.936329517540817 -100.74207775190965, -2.399586568083614 -110.98322796413674" stroke="#000000" stroke-width="1" fill="none"></path></g></g><g><g transform="translate(573 179) rotate(0 -0.17437345551678618 55.953496534544996)"><path d="M-1.0578602638095618 0.8272056486457584 C-1.42334587238729 19.371393993124368, -1.3717105474323035 92.26016489528119, -1.156134220585227 110.44503813050687 M0.5876243683509528 0.21588466884568325 C0.4822375264577567 18.98763964237645, 1.11452254621312 93.27782825352624, 0.9488498499803244 111.69110840024426" stroke="#000000" stroke-width="1" fill="none"></path></g><g transform="translate(573 179) rotate(0 -0.17437345551678618 55.953496534544996)"><path d="M-7.957555945300118 81.58236055661887 C-6.47962808532862 94.88200333732959, -3.3531451954054354 104.61124735006932, 0.252517121490091 111.01397144818678 M-9.077120589361147 83.07742708669007 C-5.562958896954387 94.37440476705675, -1.6388708162538155 106.3081766605393, 1.4504651386477052 111.16270766338333" stroke="#000000" stroke-width="1" fill="none"></path></g><g transform="translate(573 179) rotate(0 -0.17437345551678618 55.953496534544996)"><path d="M12.563644916163884 81.56453952162047 C6.112094147791494 94.69016362839935, 1.3092202000966218 104.42629365851553, 0.252517121490091 111.01397144818678 M11.444080272102855 83.05960605169167 C6.829771485182645 94.36766559333242, 2.6252197920046036 106.30849656561243, 1.4504651386477052 111.16270766338333" stroke="#000000" stroke-width="1" fill="none"></path></g></g><g><g transform="translate(613 288) rotate(0 -1.3861499819904566 -53.745780661329604)"><path d="M0.03082260154187688 -0.16220097206532946 C-0.35563531455894304 -17.972269074742993, -2.3057382120440404 -89.38923357787232, -2.80312256552279 -107.32936035059393 M-1.4121342619881034 -1.292960427738726 C-1.3745038728540142 -18.88644653612127, -0.6548696423197788 -88.36250441803286, -0.5128073760494591 -105.96484928343445" stroke="#000000" stroke-width="1" fill="none"></path></g><g transform="translate(613 288) rotate(0 -1.3861499819904566 -53.745780661329604)"><path d="M-15.166816008118486 -0.7745023098405561 C-11.481031127704583 -1.067978726304279, -8.179828949512688 0.32245341802400895, 0.4689215281046928 0.3110831416212023 M-15.17115295639219 -0.1233324297800773 C-9.861206767555947 0.1443842081082746, -4.174008804302646 -0.8549909618141367, 0.06684684581123301 0.26409415402449665" stroke="#000000" stroke-width="1" fill="none"></path></g><g transform="translate(613 288) rotate(0 -1.3861499819904566 -53.745780661329604)"><path d="M14.822958781038915 -1.557706048097079 C10.719275454303524 -1.640132016152933, 6.23407013160899 -0.046352447405582864, 0.4689215281046928 0.3110831416212023 M14.818621832765212 -0.9065361680366002 C9.342011892922843 -0.20017762265258976, 4.237985669843836 -0.9177324994077669, 0.06684684581123301 0.26409415402449665" stroke="#000000" stroke-width="1" fill="none"></path></g><g transform="translate(613 288) rotate(0 -1.3861499819904566 -53.745780661329604)"><path d="M9.216676324856975 -79.01905153046133 C6.452303569560777 -86.61069965104952, 3.06666111440995 -91.96484021012317, 0.0713245260342954 -105.33380379851907 M9.210893727158703 -78.15082502371402 C5.332968099621369 -87.62670653884786, 2.1235133383141616 -98.94888228689075, -0.4647750503569843 -105.39645578198135" stroke="#000000" stroke-width="1" fill="none"></path></g><g transform="translate(613 288) rotate(0 -1.3861499819904566 -53.745780661329604)"><path d="M-11.303657136157105 -79.20856943100156 C-8.740965303916962 -86.75628274412041, -6.798802548629929 -92.06121774520994, 0.0713245260342954 -105.33380379851907 M-11.309439733855376 -78.34034292425426 C-7.802401794653312 -87.85533449193458, -3.6280225554411407 -99.10931599155677, -0.4647750503569843 -105.39645578198135" stroke="#000000" stroke-width="1" fill="none"></path></g></g></svg>